<?xml version="1.0" standalone="no"?>
<!DOCTYPE svg PUBLIC "-//W3C//DTD SVG 1.1//EN" "http://www.w3.org/Graphics/SVG/1.1/DTD/svg11.dtd" >
<svg xmlns="http://www.w3.org/2000/svg">
<metadata>
This is a custom SVG webfont generated by Font Squirrel.
Copyright   : Copyright 19881991 Adobe Systems Inc
</metadata>
<defs>
<font id="AGaramondRegularSCRegular" horiz-adv-x="1024" >
<font-face units-per-em="2048" ascent="1638" descent="-410" />
<missing-glyph horiz-adv-x="512" />
<glyph unicode=" "  horiz-adv-x="512" />
<glyph unicode="&#x09;" horiz-adv-x="512" />
<glyph unicode="&#xa0;" horiz-adv-x="512" />
<glyph unicode="!" horiz-adv-x="451" d="M111 84q0 -51 36 -80q33 -31 78 -33q54 2 84 33q31 31 31 80q0 51 -31 86q-30 35 -84 35q-49 0 -82 -33q-32 -35 -32 -88zM125 1264q0 -33 14 -183l60 -661q10 -8 26 -8q17 0 27 8l59 661q15 150 15 183q0 63 -101 59q-49 0 -73 -10q-27 -11 -27 -49z" />
<glyph unicode="&#x22;" horiz-adv-x="827" d="M162 1384q0 -18 10 -80l53 -329q25 -25 49 0l54 329q10 62 10 80q0 33 -21 43q-24 6 -67 6t-64 -6q-24 -10 -24 -43zM489 1384q0 -18 11 -80l53 -329q24 -25 49 0l53 329q11 62 11 80q0 33 -21 43q-25 6 -68 6t-63 -6q-25 -10 -25 -43z" />
<glyph unicode="#" d="M18 391h228l-103 -385h78l105 385h243l-102 -385h80l104 385h201l31 103h-203l90 331h209l26 103h-206l94 350h-90l-92 -350h-238l94 350h-88l-92 -350h-223l-33 -103h229l-88 -331h-223zM354 494l90 331h240l-88 -331h-242z" />
<glyph unicode="$" horiz-adv-x="840" d="M74 254q0 -62 14 -123q12 -61 35 -92q24 -10 80 -31q53 -20 139 -28l-20 -140q12 -12 34 -12q23 0 37 12l19 135q161 5 256 70q94 66 96 178q0 199 -281 277l41 297q78 -17 117 -66q39 -47 55 -96q8 -8 25 -8q12 0 22 12q-2 72 -12 121q-12 47 -24 67q-87 23 -175 31 l17 115q-10 12 -35 12q-23 0 -35 -12l-14 -109q-328 -14 -332 -250q0 -168 262 -241l-45 -328q-102 29 -158 92q-57 62 -71 121q-6 12 -21 12q-16 -2 -26 -16zM264 659q-2 54 43 99q41 43 150 47l-41 -291q-56 14 -101 51q-51 33 -51 94zM420 37l43 315q98 -35 133 -78 q29 -47 29 -90q-5 -143 -205 -147z" />
<glyph unicode="%" horiz-adv-x="1728" d="M92 913q0 -129 76 -258q37 -59 96 -98q60 -41 141 -41q84 0 146 41q59 39 96 98q72 129 72 258q0 133 -72 262q-76 132 -242 136q-163 -4 -237 -136q-76 -129 -76 -262zM240 913q-2 95 30 213q19 56 52 90q34 35 86 37q55 -2 88 -37q34 -34 49 -92q18 -53 22 -110 q4 -60 4 -101q2 -90 -26 -209q-15 -53 -49 -90q-33 -41 -88 -41q-52 0 -86 39q-33 37 -52 90q-16 58 -22 113q-8 57 -8 98zM408 -37q2 -43 61 -45l833 1382q-32 37 -67 35zM1010 369q0 -129 75 -258q37 -60 97 -99q59 -39 141 -41q84 2 145 41q60 39 97 99q71 129 71 258 q0 133 -71 262q-76 131 -242 135q-164 -4 -238 -135q-75 -129 -75 -262zM1157 369q-2 94 31 213q18 55 51 90q35 35 86 37q55 -2 88 -37q35 -35 49 -92q19 -54 23 -111q4 -59 4 -100q2 -90 -27 -209q-14 -54 -49 -90q-33 -41 -88 -41q-51 0 -86 39q-33 36 -51 90 q-17 57 -23 112q-8 58 -8 99z" />
<glyph unicode="&#x26;" horiz-adv-x="1237" d="M102 231q-2 -88 74 -170q37 -36 96 -63q58 -25 140 -27q57 2 106 15q47 12 84 30q74 39 105 76q24 21 34 -2q17 -29 68 -78q49 -39 170 -41q63 0 131 23q68 22 119 80q8 22 -17 30q-75 -53 -147 -53q-29 -2 -82 19q-57 22 -123 98q-24 33 -29 49q-2 16 13 39 q92 143 157 246q45 71 78 96q31 25 88 35l60 12q12 8 12 25q-2 16 -14 20q-107 -6 -281 -6h-72q-12 -6 -12 -20q0 -17 10 -25l54 -6q55 -4 12 -86q-55 -115 -131 -248q-15 -29 -37 8q-90 146 -219 221q-35 21 -6 33q53 23 92 66t41 98q0 78 -56 135q-55 55 -159 57 q-86 0 -152 -57q-69 -57 -71 -160q0 -57 32 -98q29 -43 56 -65q16 -13 0 -21q-80 -27 -150 -96q-72 -70 -74 -189zM244 281q0 75 41 124q39 50 84 74q18 12 39 -2q163 -104 274 -278q14 -15 14 -27q0 -14 -14 -29q-90 -84 -193 -84q-100 0 -172 62q-71 57 -73 160zM352 743 q0 64 35 95q31 26 66 26q49 0 77 -39q29 -39 29 -92q-2 -86 -57 -137q-19 -25 -43 -8q-107 59 -107 155z" />
<glyph unicode="'" horiz-adv-x="481" d="M154 1384q0 -18 10 -80l53 -329q25 -25 49 0l53 329q11 62 11 80q0 33 -21 43q-24 6 -67 6t-64 -6q-24 -10 -24 -43z" />
<glyph unicode="(" horiz-adv-x="655" d="M164 553q10 -606 422 -887q28 2 28 31q-313 311 -315 856q2 545 315 856q0 29 -28 31q-412 -281 -422 -887z" />
<glyph unicode=")" horiz-adv-x="655" d="M41 -303q0 -29 29 -31q409 281 421 887q-12 606 -421 887q-29 -2 -29 -31q311 -311 315 -856q-4 -545 -315 -856z" />
<glyph unicode="*" horiz-adv-x="807" d="M78 1204l235 -164l-233 -161q-2 -13 4 -27q8 -14 20 -19l254 134l23 -267q10 -6 27 -6q12 0 22 6l21 267l253 -134q17 5 25 19q6 14 0 27l-233 161l235 164q6 17 -2 29q-6 14 -22 14l-256 -129l-21 266q-27 17 -49 0l-23 -266l-256 129q-12 0 -20 -14q-6 -12 -4 -29z" />
<glyph unicode="+" d="M119 371h334v-371h120v371h334v100h-334v336h-120v-336h-334v-100z" />
<glyph unicode="," horiz-adv-x="512" d="M111 -223q4 -17 16 -25q111 33 188 107q76 71 78 190q-2 103 -53 152q-49 49 -109 49q-49 0 -73 -27q-27 -28 -27 -65q-2 -37 35 -60q20 -4 65 -28q48 -27 52 -90q-2 -78 -58 -121q-57 -43 -110 -58q-9 -8 -4 -24z" />
<glyph unicode="-" horiz-adv-x="655" d="M66 410q-3 -35 30 -66l477 45q17 21 17 51q0 43 -31 66l-477 -45q-16 -19 -16 -51z" />
<glyph unicode="." horiz-adv-x="512" d="M141 84q0 -51 37 -80q33 -31 78 -33q53 2 84 33t31 80q0 51 -31 86t-84 35q-49 0 -82 -33q-33 -35 -33 -88z" />
<glyph unicode="/" horiz-adv-x="670" d="M61 -33h119l428 1438h-119z" />
<glyph unicode="0" horiz-adv-x="1046" d="M82 430q2 -203 133 -328q129 -129 317 -131q191 2 318 131q131 125 133 328q-2 207 -133 334q-127 127 -318 129q-188 -2 -317 -129q-131 -127 -133 -334zM219 430q0 164 88 264q82 103 225 105q144 -2 230 -105q82 -100 84 -264q-2 -156 -84 -258q-86 -104 -230 -106 q-143 2 -225 106q-88 102 -88 258z" />
<glyph unicode="1" horiz-adv-x="672" d="M74 18q0 -20 12 -24q88 6 248 6q157 0 252 -6q16 4 18 24q0 17 -12 25l-66 6q-80 6 -98 39q-18 35 -16 135v418q-2 104 18 133q21 31 107 41l34 6q13 12 13 29q-2 16 -19 20q-84 -6 -231 -6q-150 0 -228 6q-12 -4 -12 -20q-2 -17 6 -29l35 -6q86 -10 109 -41 q18 -29 16 -133v-418q2 -100 -16 -133q-21 -33 -109 -41l-55 -6q-8 -8 -6 -25z" />
<glyph unicode="2" horiz-adv-x="901" d="M90 664q0 -15 14 -25q11 -8 27 -6q78 137 209 141q176 -4 180 -199q-2 -94 -63 -184q-62 -92 -148 -178q-121 -123 -207 -184q-4 -9 2 -19q5 -12 11 -16q73 6 182 6h203q88 0 155 -2q68 0 123 -4q39 90 96 209q-18 30 -49 16q-35 -70 -78 -86q-47 -16 -127 -14h-243 q-25 0 -31 10q-8 6 -8 18l160 175q92 98 139 172q45 73 45 161q0 107 -70 172q-71 64 -194 66q-121 -2 -205 -76q-86 -72 -123 -153z" />
<glyph unicode="3" horiz-adv-x="778" d="M74 -301q0 -20 16 -51q19 -31 66 -33q51 2 147 49q94 45 186 125q170 137 177 363q-5 204 -213 266q-35 10 32 57q43 31 70 62q29 28 43 53q27 49 27 88q-2 119 -76 170q-72 45 -156 45q-102 -2 -180 -57q-78 -58 -115 -129q0 -31 35 -31q88 117 184 114q78 0 117 -40 q37 -41 37 -111q0 -57 -29 -107q-32 -49 -80 -88q-47 -36 -100 -67q-55 -31 -102 -55q-6 -25 4 -41q10 -17 26 -21q27 29 58 43q28 16 59 16q105 -2 152 -75q45 -74 45 -170q-2 -172 -88 -260q-88 -90 -201 -90q-72 8 -104 10q-13 2 -23 -4q-14 -8 -14 -31z" />
<glyph unicode="4" horiz-adv-x="962" d="M35 88q0 -22 16 -35h481q29 0 37 -8q4 -10 4 -41v-371q11 -8 33 -10q21 -4 37 -4q21 0 47 4q25 2 33 10v371q-2 33 6 43q6 6 35 6h176q14 19 14 51q0 31 -14 48h-176q-27 0 -33 10q-8 8 -8 45v676q-4 10 -14 12q-13 4 -23 -2q-235 -307 -561 -703zM215 192 q176 226 354 449h4v-434q0 -37 -4 -45q-8 -10 -37 -10h-294q-54 2 -23 40z" />
<glyph unicode="5" horiz-adv-x="758" d="M137 -377q4 -18 23 -28q59 18 135 61t147 109q74 67 121 155q47 86 49 191q-2 122 -61 213q-64 92 -166 157q-43 31 -96 66q-41 30 -53 51q-15 20 -5 47q7 25 23 39q14 12 57 18l260 37q25 4 47 21q19 14 33 33q29 40 37 77q4 21 -22 27q-13 -8 -35 -14q-23 -9 -78 -17 l-143 -20q-97 -15 -134 -25q-20 -6 -43 -45q-24 -37 -47 -88q-45 -102 -45 -164q0 -51 49 -90q46 -39 113 -86q70 -45 117 -117q47 -69 49 -168q0 -81 -33 -153q-35 -70 -86 -123q-110 -106 -207 -135q-12 -10 -6 -29z" />
<glyph unicode="6" horiz-adv-x="1001" d="M113 397q2 -192 104 -307q100 -117 270 -119q183 2 299 119q117 115 119 289q0 129 -74 219q-77 92 -219 94q-104 0 -211 -82q-10 -26 15 -37q59 23 106 23q119 -2 176 -90q54 -88 54 -201q-2 -121 -62 -192q-59 -76 -160 -76q-125 2 -186 110q-63 101 -63 236 q4 385 301 645q106 96 208 150q103 53 189 83q12 11 10 23q-4 14 -16 18q-66 -6 -232 -67q-80 -31 -168 -82q-88 -55 -172 -131q-151 -143 -221 -307q-69 -164 -67 -318z" />
<glyph unicode="7" horiz-adv-x="967" d="M63 645q15 -25 48 -14q30 67 77 90q48 16 123 16h393q41 2 46 -18q4 -23 -39 -99l-533 -987q4 -18 21 -28q16 -10 32 -10q17 0 21 2l420 792q168 318 260 461q0 16 -19 20q-71 -8 -258 -6h-319q-131 0 -201 6q-22 -120 -72 -225z" />
<glyph unicode="8" horiz-adv-x="881" d="M100 254q2 -141 105 -211q96 -72 227 -72q145 2 240 84q94 82 96 219q0 74 -16 127q-19 56 -54 99q-65 84 -170 153q43 29 90 60q43 30 78 67q78 76 80 197q-2 147 -94 221q-90 74 -217 74q-143 -2 -244 -86q-106 -88 -108 -246q2 -111 75 -197q70 -86 162 -147 q-96 -59 -170 -141q-78 -82 -80 -201zM238 266q0 92 47 166q45 74 112 127q86 -49 158 -133q76 -84 78 -193q0 -88 -49 -141q-50 -59 -144 -59q-94 2 -147 71q-55 68 -55 162zM254 987q0 90 55 156q51 65 142 67q92 -2 139 -69q47 -68 47 -158q-4 -199 -158 -293 q-37 25 -74 55q-38 31 -73 66q-33 37 -56 80q-22 43 -22 96z" />
<glyph unicode="9" horiz-adv-x="967" d="M70 -383q4 -16 14 -22q242 38 475 233q305 309 301 637q0 192 -88 309q-92 117 -276 119q-164 -2 -281 -109q-119 -106 -121 -288q0 -129 78 -213q74 -88 193 -91q120 3 198 72q8 25 -12 37q-41 -20 -98 -18q-50 0 -88 30q-39 29 -68 72q-57 92 -57 195q0 108 57 178 q55 65 151 67q76 0 125 -35q47 -34 74 -88q29 -53 37 -112q8 -60 8 -115q0 -67 -8 -129q-8 -63 -25 -119q-34 -112 -88 -198q-53 -86 -106 -144q-57 -59 -98 -90q-119 -92 -293 -155q-8 -11 -4 -23z" />
<glyph unicode=":" horiz-adv-x="512" d="M141 84q0 -51 37 -80q33 -31 78 -33q53 2 84 33t31 80q0 51 -31 86t-84 35q-49 0 -82 -33q-33 -35 -33 -88zM141 686q0 -51 37 -80q33 -33 78 -33q53 0 84 33q31 31 31 80q0 51 -31 86t-84 35q-49 0 -82 -33q-33 -35 -33 -88z" />
<glyph unicode=";" horiz-adv-x="512" d="M111 -223q4 -17 16 -25q111 33 188 107q76 71 78 190q-2 103 -53 152q-49 49 -109 49q-49 0 -73 -27q-27 -28 -27 -65q-2 -37 35 -60q20 -4 65 -28q48 -27 52 -90q-2 -78 -58 -121q-57 -43 -110 -58q-9 -8 -4 -24zM141 686q0 -51 37 -80q33 -33 78 -33q53 0 84 33 q31 31 31 80q0 51 -31 86t-84 35q-49 0 -82 -33q-33 -35 -33 -88z" />
<glyph unicode="&#x3c;" d="M115 375l796 -377v117l-649 305v4l649 303v119l-796 -379v-92z" />
<glyph unicode="=" d="M119 217h788v100h-788v-100zM119 524h788v101h-788v-101z" />
<glyph unicode="&#x3e;" d="M113 -2l796 377v92l-796 379v-119l649 -303v-4l-649 -305v-117z" />
<glyph unicode="?" horiz-adv-x="657" d="M131 1245q0 -39 29 -61q24 -25 39 -25q80 0 137 -10q57 -14 100 -55q25 -25 37 -58q8 -33 8 -67q2 -82 -112 -150l-101 -53q-47 -23 -78 -53q-32 -31 -32 -95q0 -49 26 -106q25 -57 47 -96q11 -6 25 -4q12 2 18 14q-20 65 -20 119q0 55 72 90l161 86q27 12 54 57 q22 45 24 127q-4 168 -114 291q-109 125 -238 127q-41 0 -59 -23q-23 -22 -23 -55zM143 84q0 -51 37 -80q33 -31 78 -33q53 2 84 33t31 80q0 51 -31 86t-84 35q-49 0 -82 -33q-33 -35 -33 -88z" />
<glyph unicode="@" horiz-adv-x="1567" d="M92 600q6 -321 219 -477q209 -156 471 -156q90 0 197 25q104 22 199 80q8 26 -17 39q-49 -23 -127 -45q-39 -11 -86 -17q-49 -10 -104 -10q-174 0 -291 55q-119 53 -188 137q-70 86 -101 183q-31 98 -31 188q0 293 175 498q167 211 475 215q231 -2 381 -125 q151 -125 153 -346q-2 -195 -117 -301q-114 -109 -282 -117q-78 -4 -47 65q125 304 239 568q-14 16 -43 26q-28 7 -55 -2l-51 -104q-8 22 -31 35q-22 10 -45 10q-123 -2 -229 -82q-105 -78 -181 -176q-88 -113 -120 -199q-35 -86 -35 -116q0 -35 22 -62q19 -31 62 -31 q69 2 180 74q111 68 207 166l4 -2l-51 -129q-19 -51 -17 -64q-2 -10 25 -26q24 -19 123 -19q252 4 391 150q137 141 139 344q-2 213 -153 371q-154 157 -451 161q-326 -2 -561 -211q-242 -206 -248 -573zM582 479q2 90 65 213q62 123 150 199q39 31 69 47q31 14 60 14 q69 -4 88 -59q-21 -53 -92 -156q-72 -104 -152 -178q-74 -63 -113 -84q-43 -22 -51 -22q-24 0 -24 26z" />
<glyph unicode="A" horiz-adv-x="1276" d="M-51 20q0 -18 10 -26q90 6 197 6q139 -2 213 -6q14 8 16 26q0 17 -12 25l-68 6q-35 2 -47 15q-12 8 -12 26q0 33 45 170l71 215q11 33 27 43q14 6 51 6h310q45 0 61 -6q14 -12 22 -45l91 -278q26 -74 26 -109q-2 -31 -71 -37l-60 -6q-8 -8 -8 -25q0 -18 12 -26 q88 6 236 6q131 0 248 -6q10 8 10 26q2 17 -10 25l-56 6q-61 6 -96 47q-35 43 -78 170l-280 824q-23 67 -45 139q-25 67 -45 135q-9 18 -31 18q-17 -20 -41 -43q-29 -22 -66 -34q1 -6 1 -14q0 -43 -36 -132l-208 -553q-127 -329 -181 -456q-22 -54 -53 -74q-31 -25 -69 -27 l-68 -6q-6 -6 -6 -19v-6zM424 616q-3 4 -3 11q0 11 7 30l129 357q18 47 33 82q12 32 16 39h4q10 -19 23 -54q12 -37 24 -76l111 -333q11 -26 11 -40q0 -7 -3 -12q-7 -12 -42 -12h-11h-252q-41 0 -47 8z" />
<glyph unicode="B" horiz-adv-x="1239" d="M86 1319q0 -17 10 -29l66 -6q67 -4 86 -45q14 -43 14 -154v-778v-33q0 -126 -14 -168q-19 -49 -99 -55l-36 -6q-9 -10 -7 -27q0 -16 11 -24q106 6 235 6q144 -2 246 -6q545 10 545 394q0 87 -27 149q-27 61 -67 100q-41 43 -89 67q-49 23 -92 29q-39 4 -39 31 q95 43 152 108q57 64 57 172q-2 99 -43 162q-43 64 -112 94q-68 37 -156 47q-90 11 -188 11q-281 0 -441 -17q-12 -6 -12 -22zM430 338v303v5q0 27 18 38q21 10 101 10q123 0 203 -30q79 -31 124 -82q46 -50 64 -113q16 -61 16 -125q-2 -152 -92 -219q-86 -68 -221 -68h-8 q-47 0 -88 13q-43 12 -74 45q-27 37 -35 102q-8 64 -8 121zM430 813v416q0 26 8 39q6 12 21 14q26 12 94 12q123 0 213 -61q90 -66 92 -215q0 -142 -80 -199q-84 -59 -241 -63q-21 -1 -38 -1q-41 0 -53 7q-16 9 -16 43v8z" />
<glyph unicode="C" horiz-adv-x="1425" d="M90 668q2 -197 86 -336q80 -142 205 -228q226 -137 502 -137h8q102 2 194 19q93 16 129 28q35 15 72 21q27 35 57 117q31 79 41 163q-6 13 -22 15q-17 4 -31 -6q-16 -43 -47 -95q-33 -53 -84 -96q-49 -43 -123 -72q-74 -30 -174 -30q-258 0 -428 174q-176 170 -180 493 q4 320 174 471q164 152 405 152q113 0 189 -25q78 -28 123 -71q49 -43 75 -97q25 -53 33 -106q15 -8 31 -6q16 0 25 10q-25 209 -29 301q-25 -2 -57 8q-170 47 -363 49q-324 0 -553 -174q-252 -190 -258 -542z" />
<glyph unicode="D" horiz-adv-x="1597" d="M86 18q0 -16 10 -24q135 6 256 6q56 0 146 -8q88 -6 188 -8h10q242 0 449 98q356 205 358 610q0 207 -102 367q-105 159 -314 237q-190 62 -435 62h-15q-256 0 -514 -17q-14 -8 -14 -24q0 -17 12 -27l45 -6q63 -6 82 -49q14 -43 14 -150v-778v-30q0 -128 -16 -171 q-21 -49 -107 -55l-47 -6q-6 -8 -6 -20v-7zM430 354v756v21q0 117 21 135q12 10 63 20q25 4 61 6q35 2 78 2q203 -2 330 -61q125 -62 195 -156q69 -94 96 -198q24 -103 24 -191q0 -289 -137 -463q-141 -176 -438 -178h-16q-176 0 -236 84q-41 62 -42 198q1 12 1 25z" />
<glyph unicode="E" horiz-adv-x="1196" d="M61 18q0 -16 11 -24q164 6 278 6h184q138 0 275 -2q135 0 274 -4q25 49 54 137q26 90 38 148q-6 14 -22 20q-16 4 -29 -6q-84 -164 -145 -199q-31 -16 -86 -22q-60 -9 -176 -9q-131 0 -180 17q-52 12 -68 31q-39 49 -39 198v15v288q-2 39 12 49q11 7 56 7h118 q117 0 158 -11q31 -6 45 -26q14 -23 19 -51l18 -80q12 -9 29 -9q16 0 24 11q-6 78 -8 196q4 125 8 207q-8 12 -24 12q-17 0 -29 -10l-16 -84q-7 -37 -19 -51t-31 -20q-40 -13 -174 -13h-118q-45 -2 -56 8q-14 9 -12 50v409v17q0 41 8 55q10 10 53 10h148q135 0 199 -12 q77 -19 108 -70q29 -49 47 -125q10 -8 27 -6q16 0 24 10q-6 74 -14 158q-8 86 -18 115q-21 -4 -97 -4q-79 -2 -180 -2h-385q-61 0 -119 2q-57 0 -122 4q-11 -4 -11 -23q-2 -20 6 -28l33 -5q88 -4 109 -53q16 -44 16 -175v-30v-737v-27q0 -132 -18 -176q-23 -49 -109 -53 l-67 -6q-7 -8 -7 -21v-6z" />
<glyph unicode="F" horiz-adv-x="1102" d="M82 18q0 -16 10 -24q133 6 256 6q107 0 272 -6q11 8 13 26q0 17 -8 25l-70 6q-86 4 -107 53q-18 44 -18 176v27v285q-2 39 12 49q11 6 56 6h139q117 0 158 -10q55 -21 65 -78l21 -80q14 -8 30 -8q17 0 23 8q-6 80 -8 199q4 123 8 207q-8 10 -25 10q-16 0 -28 -10l-19 -82 q-8 -37 -20 -51q-13 -15 -31 -21q-43 -12 -174 -12h-139q-45 -2 -56 8q-14 8 -12 47v432v17q0 41 8 55q10 10 53 10h125q131 0 199 -12q76 -23 104 -72q29 -51 39 -123q13 -8 29 -4q16 0 21 10q-7 123 -7 271q-47 -6 -196 -6h-80h-377q-59 0 -117 2q-57 0 -120 4 q-11 -4 -11 -23q-2 -20 6 -28l33 -5q86 -4 107 -51q16 -44 16 -176v-31v-737v-30q0 -128 -16 -171q-21 -49 -107 -55l-51 -6q-6 -8 -6 -20v-7z" />
<glyph unicode="G" horiz-adv-x="1530" d="M94 659q0 -274 189 -464q120 -119 282 -172q160 -56 342 -56q185 4 367 53q61 17 100 19q12 12 2 24q-49 22 -49 137v9v115v17q0 67 14 105q13 43 74 50l33 4q12 12 12 28q-2 17 -14 23q-99 -6 -217 -6q-193 0 -293 6q-10 -4 -10 -23q0 -20 10 -28l90 -11q92 -4 117 -38 q16 -31 16 -136v-24v-82q0 -49 -4 -76q-6 -29 -16 -41q-35 -59 -226 -61q-307 4 -460 205q-154 196 -154 497q0 238 139 412q137 174 432 178h10q153 0 259 -62q108 -65 151 -229q10 -8 31 -6q20 0 24 12q-30 191 -30 297q-21 -2 -56 6q-38 6 -71 13q-68 26 -260 30 q-230 0 -387 -63q-80 -31 -144 -76q-67 -45 -118 -100q-185 -211 -185 -480v-6z" />
<glyph unicode="H" horiz-adv-x="1651" d="M82 1335v-8q0 -14 6 -20l53 -5q78 -2 103 -49q18 -46 18 -181v-28v-737v-33q0 -126 -14 -168q-21 -45 -105 -55l-34 -6q-9 -10 -7 -27q0 -16 11 -24q112 6 237 6q107 0 260 -6q10 8 13 26q0 17 -9 25l-59 6q-82 4 -104 53q-21 44 -21 179v24v289q-2 45 16 57q17 8 86 8 h586q72 0 90 -8q15 -12 13 -57v-289v-28q0 -129 -17 -173q-16 -49 -108 -55l-39 -6q-8 -10 -6 -27q0 -16 10 -24q129 6 248 6q110 0 247 -6q11 8 13 26q0 17 -9 25l-49 6q-86 6 -104 55q-19 44 -19 175v26v737v27q0 136 19 180q18 47 104 51l43 5q9 8 9 28q-3 19 -13 23 q-129 -6 -241 -6q-117 0 -248 6q-10 -4 -10 -23q-2 -20 6 -28l39 -5q88 -4 108 -51q17 -44 17 -178v-29v-235q2 -45 -13 -55q-18 -11 -90 -11h-586q-69 0 -86 11q-18 10 -16 55v235v28q0 135 18 179q19 47 105 51l39 5q8 8 8 28q-2 19 -12 23q-125 -6 -238 -6q-119 0 -258 6 q-10 -4 -10 -23z" />
<glyph unicode="I" horiz-adv-x="692" d="M80 18q0 -16 10 -24q141 6 258 6q113 0 254 -6q10 8 12 26q0 17 -8 25l-51 6q-86 6 -107 55q-18 44 -18 177v28v729v28q0 135 18 183q21 51 107 51l51 5q8 8 8 28q-2 19 -12 23q-141 -6 -254 -6q-117 0 -258 6q-10 -4 -10 -23v-8q0 -14 6 -20l51 -5q88 0 109 -51 q16 -48 16 -180v-31v-729v-30q0 -131 -16 -175q-21 -49 -109 -55l-51 -6q-6 -8 -6 -20v-7z" />
<glyph unicode="J" horiz-adv-x="707" d="M-78 -369q2 -28 37 -34q31 -9 51 -9q146 2 250 86q102 84 154 209q47 142 47 379v19v759v28q0 134 18 179q21 49 107 55l30 5q9 8 9 28q-2 19 -13 23q-116 -6 -233 -6q-113 0 -275 6q-10 -4 -10 -23q-2 -20 6 -28l52 -5q90 0 116 -47q25 -46 25 -193v-22v-774 q0 -96 -6 -262q-4 -78 -17 -143q-12 -70 -30 -109q-19 -49 -82 -53q-43 2 -86 14q-39 13 -76 13q-31 0 -51 -33q-23 -31 -23 -62z" />
<glyph unicode="K" horiz-adv-x="1382" d="M82 1335v-8q0 -14 6 -20l51 -5q86 0 107 -51q16 -44 16 -176v-31v-737v-33q0 -126 -14 -168q-19 -49 -99 -55l-40 -6q-9 -10 -7 -27q0 -16 11 -24q118 6 237 6q111 0 250 -6q10 8 12 26q0 17 -8 25l-55 6q-82 4 -101 53q-18 44 -18 176v27v264q0 56 8 78q6 21 27 21 q33 0 76 -37q41 -39 123 -135l163 -185q115 -125 170 -192q13 -12 23 -25q6 -12 6 -22q-2 -15 -49 -21l-47 -8q-8 -10 -4 -27q4 -20 12 -24q133 6 250 6q147 0 229 -6q14 10 14 31q0 13 -10 20l-55 6q-96 12 -164 84q-229 246 -512 576q-39 45 -39 63q0 23 47 64l185 174 q186 176 286 237q99 51 191 58q10 10 10 26q-2 17 -14 25q-95 -6 -203 -6q-113 0 -225 6q-13 -6 -13 -23q0 -16 9 -28l55 -13q35 -8 35 -20q0 -13 -15 -33q-18 -27 -71 -80q-54 -57 -88 -90l-222 -219q-45 -47 -104 -98q-25 -21 -57 -23q-15 0 -21 27q-6 22 -6 51v235v28 q0 135 18 179q19 47 105 51l39 5q8 8 8 28q-2 19 -12 23q-125 -6 -238 -6q-123 0 -258 6q-10 -4 -10 -23z" />
<glyph unicode="L" horiz-adv-x="1132" d="M72 18q0 -16 10 -24q156 6 266 6h189q161 0 294 -2q136 0 215 -4q25 53 56 158q12 47 22 86q8 34 8 43q-2 12 -18 16q-20 4 -33 -4q-67 -162 -135 -203q-20 -12 -70 -18q-51 -9 -180 -9q-57 0 -98 7q-39 4 -64 10q-45 14 -61 31q-27 28 -35 77q-8 52 -8 144v712v28 q0 135 18 179q21 51 107 51l49 5q8 8 8 28q-2 19 -12 23q-143 -6 -252 -6q-108 0 -266 6q-10 -4 -10 -23v-8q0 -14 6 -20l51 -5q94 0 117 -51q16 -44 16 -176v-31v-737v-30q0 -130 -16 -173q-21 -49 -107 -53l-61 -6q-6 -8 -6 -20v-7z" />
<glyph unicode="M" horiz-adv-x="1868" d="M51 20q0 -16 10 -26q109 6 209 6q121 0 228 -6q12 8 14 24q0 17 -12 27l-78 6q-57 4 -74 43q-18 34 -18 128v20q0 278 14 481q8 176 21 364h4q67 -147 131 -294l184 -396q100 -198 180 -409q10 -8 19 -8q14 0 20 8q70 170 221 467l183 358q34 70 77 156q43 88 56 110h4 l6 -854v-23q0 -77 -12 -108q-15 -37 -88 -43l-60 -6q-8 -10 -6 -25q0 -16 10 -26q133 6 248 6q113 0 242 -6q12 8 14 24q0 17 -10 27l-66 6q-67 10 -82 49q-14 41 -18 117q-21 504 -23 891v14q0 93 25 133q27 41 119 47l43 5q8 8 8 26q0 17 -10 25q-101 -6 -183 -6h-24 q-51 0 -129 6q-10 -127 -156 -393l-192 -392q-76 -159 -158 -307h-4q-72 135 -141 281l-234 473q-22 49 -41 98q-20 49 -37 92q-28 78 -29 134q0 7 1 14q-81 -6 -141 -6h-29q-74 0 -162 6q-12 -6 -12 -23q-2 -16 4 -28l32 -5q93 -12 119 -45q20 -29 20 -96q0 -16 -1 -35 q-6 -184 -23 -456q-16 -277 -35 -451q-8 -102 -34 -133q-29 -29 -93 -35l-45 -6q-6 -6 -6 -19v-6z" />
<glyph unicode="N" horiz-adv-x="1603" d="M43 1335q0 -16 8 -28l35 -5q80 -8 127 -49q33 -32 41 -67q4 -37 4 -80v-592v-219q-2 -64 -8 -117q-6 -57 -19 -86q-16 -35 -90 -41l-55 -6q-8 -10 -6 -25q0 -16 10 -26q96 6 213 6q109 0 240 -6q22 20 4 51l-64 6q-80 6 -104 39q-12 27 -19 80q-6 55 -10 121 q-8 141 -8 223v446q0 95 10 134h4q111 -125 238 -277l475 -541q133 -147 190 -215q56 -69 72 -94q33 2 39 23q-4 53 -4 178q-2 123 -2 180v490q0 81 4 219q2 65 8 121q6 53 19 81q14 27 114 43l29 5q10 10 10 26q-2 17 -14 25q-92 -6 -211 -6q-109 0 -242 6q-12 -4 -12 -23 q0 -16 8 -28l35 -5q61 -6 90 -16q29 -8 37 -25q16 -22 25 -77q10 -54 12 -121q4 -139 4 -225v-439v-53q-2 -24 -8 -33h-4q-138 140 -338 371l-199 223q-59 70 -182 215q-58 70 -103 133q-22 31 -38 60q-19 24 -27 43q-43 -6 -94 -6h-34q-75 0 -198 6q-12 -6 -12 -23z" />
<glyph unicode="O" horiz-adv-x="1628" d="M94 661q2 -284 195 -483q190 -207 534 -211q305 4 506 203q201 197 205 512q0 280 -176 487q-178 211 -535 215q-321 -4 -522 -206q-205 -201 -207 -517zM299 727q0 168 49 285q45 116 117 182q76 70 160 100q43 15 84 21t79 6q293 -6 418 -223q123 -208 123 -472v-8 q-4 -301 -145 -444q-142 -143 -334 -143q-297 6 -426 235q-125 216 -125 454v7z" />
<glyph unicode="P" horiz-adv-x="1124" d="M84 1319q0 -17 8 -29l74 -8q67 -2 84 -45q12 -39 12 -143v-31v-756v-30q0 -128 -16 -171q-21 -49 -107 -55l-43 -6q-8 -10 -6 -27q0 -16 10 -24q129 6 250 6q107 0 266 -6q11 8 13 26q0 17 -9 25l-55 6q-94 6 -114 55q-21 44 -21 177v24v914v9q0 39 16 52q19 12 95 12 q327 -8 329 -327q0 -134 -65 -222q-72 -90 -236 -122q-8 -5 -8 -19t10 -22h8q134 0 275 61q35 18 72 45q34 27 65 66q66 75 68 215q-6 215 -164 307q-138 82 -381 82h-12q-248 0 -406 -17q-12 -6 -12 -22z" />
<glyph unicode="Q" horiz-adv-x="1628" d="M94 661q6 -460 438 -638q117 -39 201 -50q41 -4 70 -18q24 -12 67 -57q60 -58 156 -133q49 -37 106 -72q56 -35 117 -66q92 -39 178 -57q84 -18 154 -18q29 0 59 4q29 4 60 10q59 12 110 39q4 6 4 12q0 4 -2 8q-2 10 -12 10q-55 -18 -98 -18h-9q-72 0 -182 29 q-127 45 -250 143q-122 98 -206 178q-21 17 -17 31q219 68 357 250q137 178 139 434q0 280 -176 487q-178 211 -535 215q-321 -4 -522 -206q-205 -201 -207 -517zM299 727q0 168 49 285q45 116 117 182q76 70 160 100q43 15 84 21t79 6q293 -6 418 -223q123 -208 123 -472 v-8q-4 -301 -145 -444q-142 -143 -334 -143q-297 6 -426 235q-125 216 -125 454v7z" />
<glyph unicode="R" horiz-adv-x="1321" d="M82 18q0 -16 10 -24q135 6 256 6q115 0 244 -6q10 8 12 26q0 17 -8 25l-43 6q-86 6 -105 55q-18 44 -18 174v27v258q-2 33 14 41q17 4 82 4q60 0 92 -14q33 -19 54 -51q108 -166 200 -309q109 -150 203 -205q96 -54 221 -54q62 0 90 11q7 8 7 15q0 8 -9 13q-86 9 -141 58 q-186 162 -412 544q-6 15 -10 27q-6 12 0 23q41 14 86 45q45 26 82 69q84 84 88 228q0 106 -47 180q-47 69 -123 106q-71 39 -157 51q-89 11 -185 11q-293 0 -456 -17q-13 -8 -13 -24q0 -17 10 -27l66 -8q61 -2 78 -49q12 -41 12 -157v-34v-735v-30q0 -128 -16 -171 q-21 -49 -107 -55l-51 -6q-6 -8 -6 -20v-7zM430 750v479v6q0 36 21 49q20 10 112 10q172 -2 250 -94q78 -94 78 -221q0 -103 -29 -162t-74 -92t-98 -43q-55 -10 -113 -10q-143 0 -141 10q-6 10 -6 47v21z" />
<glyph unicode="S" horiz-adv-x="1001" d="M84 330q4 -76 20 -160q11 -41 19 -74q6 -35 16 -53q31 -18 111 -45q80 -29 209 -31q202 2 319 107q115 100 117 272q-2 145 -78 242q-76 94 -178 151l-164 103q-59 37 -115 102q-57 61 -59 150v6q0 72 49 143q27 35 76 57q45 21 119 21q73 0 125 -21q49 -22 80 -57 q30 -33 49 -74q16 -41 24 -80q10 -8 27 -4q16 0 24 11q-2 153 -36 249q-29 0 -72 13q-88 26 -191 26q-200 -2 -307 -102q-110 -98 -110 -250q2 -125 73 -211q66 -88 148 -141l194 -127q111 -72 142 -143q18 -37 22 -72q4 -37 4 -72q0 -94 -61 -162q-66 -71 -195 -73 q-88 0 -149 35q-62 32 -103 79q-38 50 -63 103q-25 51 -37 88q-6 8 -22 8q-17 -2 -27 -14z" />
<glyph unicode="T" horiz-adv-x="1352" d="M14 1110q9 -12 25 -16q16 -7 29 2q16 41 36 73q21 35 56 68q43 35 114 45q70 6 138 6h112q45 0 56 -8q6 -10 6 -57v-916v-26q0 -133 -19 -177q-22 -49 -108 -53l-74 -6q-10 -8 -10 -25q0 -18 10 -26q180 6 285 6q108 0 268 -6q10 8 12 26q0 17 -8 25l-66 6q-86 4 -104 53 q-18 44 -18 176v27v911q-2 52 8 62q8 8 51 8h145q168 0 238 -51q25 -19 37 -62q12 -45 14 -88q12 -8 29 -8q16 0 24 13v20q0 49 7 129q10 94 24 162q-14 12 -37 6q-18 -39 -49 -47q-31 -10 -110 -10h-830h-22q-55 0 -95 8q-47 10 -57 55q-4 6 -18 6q-13 -2 -21 -6 q-24 -145 -78 -305z" />
<glyph unicode="U" horiz-adv-x="1528" d="M66 1335q-1 -4 -1 -8q0 -12 7 -18l51 -5q86 0 106 -51q17 -46 17 -178v-29v-483v-9q0 -349 159 -474q41 -31 86 -51q43 -23 93 -35q100 -27 204 -27q244 2 392 150q84 94 116 225q27 129 27 264v232q0 96 4 227q4 31 6 61q0 29 4 54q2 26 8 45q5 18 7 30q10 23 36 35 q29 12 66 14l49 5q10 10 10 26q-2 17 -14 23q-98 -6 -215 -6q-119 0 -233 6q-11 -6 -11 -21q-2 -16 6 -28l52 -5q80 -6 102 -43q27 -55 35 -186q4 -133 4 -237v-236v-10q0 -230 -92 -377q-96 -156 -318 -158q-231 2 -323 152q-92 142 -92 385v10v442v27q0 133 18 180 q19 51 105 51l49 5q8 8 8 26q-2 19 -12 23q-138 -6 -252 -6q-111 0 -254 6q-10 -4 -10 -23z" />
<glyph unicode="V" horiz-adv-x="1384" d="M-6 1333q0 -16 8 -26l37 -5q65 -4 100 -43q35 -38 66 -124l360 -889q58 -135 94 -273q17 -6 31 -6q12 0 23 6q71 207 213 535l110 252q72 157 129 278q58 121 101 193q36 65 106 71l61 5q9 10 9 26q0 17 -13 25q-98 -6 -198 -6q-121 0 -213 6q-10 -6 -10 -23 q-3 -16 6 -28l37 -5q53 -6 73 -16q19 -10 19 -22q2 -19 -19 -80q-75 -191 -190 -459q-35 -86 -90 -215q-56 -131 -107 -240q-151 350 -291 707q-47 119 -71 194q-27 76 -31 93q2 12 21 22q20 10 75 16l31 5q12 12 10 28q-2 17 -14 23q-121 -6 -248 -6t-213 6q-12 -8 -12 -25 z" />
<glyph unicode="W" horiz-adv-x="1966" d="M-12 1335v-6q0 -12 6 -20l49 -5q63 -6 94 -43q29 -38 55 -104q197 -426 392 -854q65 -145 141 -330q16 -6 31 -6q16 0 24 6q117 308 256 582q123 -262 248 -582q12 -6 29 -6q16 0 24 6q125 322 256 629l150 346q88 209 131 283q43 71 112 73l39 5q13 14 13 30 q-4 15 -17 19q-76 -6 -190 -6q-88 0 -197 6q-24 -17 -2 -49l60 -5q65 -4 67 -47q-2 -20 -18 -73q-21 -56 -43 -113q-64 -158 -164 -407q-90 -218 -184 -433q-103 232 -209 467q-15 37 -15 49q0 17 19 50q71 159 159 325q33 68 70 123q35 53 98 59l60 5q10 14 10 30 q-2 15 -14 19q-82 -6 -197 -6q-110 0 -192 6q-11 -4 -11 -17q-2 -16 7 -32l61 -5q25 0 41 -6q14 -8 14 -28q2 -39 -53 -166q-66 -158 -121 -268q-90 198 -158 356q-24 53 -24 78q0 7 2 12q8 22 65 22l54 5q10 14 10 30q-2 15 -14 19q-72 -6 -226 -6q-127 0 -219 6 q-12 -6 -12 -21q0 -16 8 -28l49 -5q52 -4 82 -32q29 -31 49 -80q117 -246 226 -492q16 -36 16 -53q-2 -20 -33 -84q-84 -174 -157 -332q-181 379 -355 764q-47 113 -75 185q-13 36 -21 59q-10 22 -10 31q0 28 67 34l47 5q11 12 11 28q0 17 -15 21q-127 -6 -233 -6 q-111 0 -211 6q-12 -6 -12 -23z" />
<glyph unicode="X" horiz-adv-x="1317" d="M-20 18q0 -16 12 -24q102 6 211 6q108 0 221 -6q10 10 12 26q2 15 -10 25l-55 6q-60 8 -60 27q0 22 27 65q164 275 289 437q147 -199 292 -412q48 -78 46 -90q0 -21 -70 -27l-59 -6q-7 -8 -5 -25q0 -16 9 -26q118 6 264 6q121 0 258 -6q12 10 14 26q0 15 -12 25l-72 6 q-88 0 -186 135l-346 488q-29 47 -27 53q0 10 21 39q147 207 266 362q127 162 219 174l49 5q10 10 10 26q-2 17 -14 25q-88 -6 -197 -6q-114 0 -217 6q-12 -6 -12 -23q0 -16 8 -28l53 -7q29 -4 50 -10q18 -6 18 -16q-2 -25 -29 -68q-36 -59 -131 -207q-94 -147 -143 -211 q-133 183 -262 375q-27 47 -43 74q-19 27 -19 39q2 20 62 26l57 5q10 14 10 30q-2 17 -14 21q-100 -6 -231 -6q-103 0 -238 6q-8 -4 -8 -23q-2 -16 4 -28l66 -15q53 -8 92 -45q39 -35 86 -108l307 -441q24 -34 24 -47q0 -10 -18 -41q-205 -286 -278 -377q-45 -63 -103 -114 q-57 -56 -141 -68l-51 -6q-7 -8 -7 -19q0 -4 1 -8z" />
<glyph unicode="Y" horiz-adv-x="1175" d="M-12 1335v-6q0 -12 6 -22l57 -11q45 -2 80 -28q33 -29 82 -127l242 -471q45 -80 57 -127q8 -47 8 -127v-105v-30q0 -132 -16 -177q-21 -49 -107 -53l-63 -6q-8 -10 -6 -27q0 -16 10 -24q151 6 268 6q107 0 279 -6q10 8 12 24q0 17 -8 27l-78 6q-80 2 -102 51 q-21 48 -21 185v24v107v24q0 93 14 146q17 57 82 162l129 223q74 135 136 223q59 86 135 100l57 11q12 10 12 26q-4 17 -16 25q-100 -6 -191 -6q-90 0 -196 6q-12 -6 -12 -23q0 -16 8 -28l37 -5q39 -2 63 -12q23 -10 23 -20q-2 -23 -43 -105q-43 -82 -90 -166 q-95 -180 -193 -346q-119 219 -231 455q-11 22 -35 80q-8 28 -19 49q-10 22 -10 29q-2 12 19 20q16 8 67 16l27 5q10 12 10 28q-2 19 -16 23q-78 -6 -219 -6q-144 0 -238 6q-10 -6 -10 -23z" />
<glyph unicode="Z" horiz-adv-x="1313" d="M55 18q0 -16 11 -24q69 6 229 6h526q107 0 199 -2q92 0 174 -4q24 45 53 131q12 41 25 84q8 41 14 76q-4 16 -18 18q-17 2 -33 -4q-25 -59 -62 -111q-36 -51 -81 -77q-62 -31 -168 -39q-109 -9 -211 -9q-219 0 -303 5q-58 2 -58 28q0 15 31 62q27 45 63 98 q82 119 109 158l338 487q86 125 188 260q49 66 90 115q39 47 58 63q0 15 -13 19q-24 -6 -235 -6h-541q-118 0 -159 8q-39 8 -43 43q-9 5 -18 5t-17 -5q-41 -185 -84 -307q6 -13 22 -15q17 -6 29 0q25 62 90 140q66 67 292 67h13h305q74 0 74 -15q0 -19 -25 -57 q-45 -77 -198 -290l-442 -629q-127 -178 -224 -279z" />
<glyph unicode="[" horiz-adv-x="655" d="M240 -307h141q113 2 225 6q12 6 12 23q0 12 -10 22l-182 21q-37 2 -51 20q-15 23 -21 113t-6 206v889q0 119 6 211q4 43 11 74q4 29 10 35q14 18 51 20l182 21q10 14 10 26q0 13 -12 19q-112 4 -225 6h-141v-1712z" />
<glyph unicode="\" horiz-adv-x="633" d="M61 1405l392 -1438h118l-391 1438h-119z" />
<glyph unicode="]" horiz-adv-x="655" d="M39 -278q0 -17 10 -23q113 -4 225 -6h142v1712h-142q-112 -2 -225 -6q-10 -6 -10 -19q0 -12 8 -26l182 -21q37 -2 52 -20q18 -19 22 -109q4 -92 4 -211v-889q0 -116 -4 -206q-2 -43 -6 -72q-6 -31 -16 -41q-15 -18 -52 -20l-182 -21q-8 -10 -8 -22z" />
<glyph unicode="^" d="M100 500h129l283 637l283 -637h127l-361 782h-98z" />
<glyph unicode="_" d="M0 -154v-102h1024v102h-1024z" />
<glyph unicode="`" horiz-adv-x="737" d="M154 1282q0 -23 34 -61l265 -277q26 -2 32 25l-186 346q-10 22 -20 35q-13 14 -25 14q-27 4 -64 -27q-36 -30 -36 -55z" />
<glyph unicode="a" horiz-adv-x="936" d="M-29 20q0 -18 13 -26q57 6 143 6t162 -6q16 4 18 24q0 19 -12 27l-55 10q-27 4 -33 21q-6 14 10 61l47 131q10 35 25 43q14 6 45 6h194q35 0 49 -6q11 -8 21 -43l49 -133q21 -45 19 -61q-7 -17 -46 -23l-40 -6q-13 -8 -11 -25q0 -18 15 -26q75 6 184 6q98 0 170 -6 q16 4 18 24q1 4 1 7q0 13 -13 20l-33 6q-53 10 -75 37q-23 25 -41 72l-185 489q-35 96 -57 166q-25 70 -31 86q-4 12 -18 12q-6 0 -15 -2q-22 -47 -86 -78q-4 -51 -53 -172l-196 -471q-29 -71 -54 -96q-26 -28 -73 -39l-47 -10q-9 -7 -9 -20v-5zM317 393q-2 3 -2 7 q0 13 13 42l73 183q27 61 33 69h4q8 -8 31 -74l63 -174q14 -31 14 -46q0 -5 -1 -7q-8 -10 -49 -10h-142q-32 0 -37 10z" />
<glyph unicode="b" horiz-adv-x="985" d="M72 20q0 -18 12 -26q119 6 215 6q57 0 104 -2q48 -4 78 -4q76 0 148 12q71 8 131 35q63 31 100 82q35 49 35 131q0 55 -16 94q-17 39 -46 66q-59 51 -120 63q-54 8 -54 21q0 3 2 6q162 51 164 180q0 74 -35 117q-36 43 -94 63q-104 31 -243 31h-17q-182 0 -342 -12 q-12 -4 -12 -23q-2 -20 10 -29l64 -8q43 -4 53 -39q6 -37 6 -135v-434q0 -100 -14 -127q-17 -29 -82 -37l-39 -6q-8 -8 -8 -25zM371 213v199q-2 20 14 28q16 6 82 6q104 0 178 -43q76 -47 78 -167q-2 -101 -59 -142q-60 -41 -140 -41q-92 0 -123 35q-30 33 -30 115v10z M371 541v239v6q0 24 14 37t76 13q82 0 139 -37q55 -41 57 -133q0 -93 -57 -127q-56 -33 -149 -33h-11q-47 0 -57 6q-12 5 -12 24v5z" />
<glyph unicode="c" horiz-adv-x="1026" d="M78 430q0 -123 57 -213q53 -92 137 -151q41 -25 84 -41q43 -19 88 -31q93 -23 189 -23q55 0 98 6q41 7 74 13q63 16 104 24q45 72 68 222q-8 16 -25 16q-18 0 -28 -14q-7 -19 -25 -54q-20 -35 -57 -69q-33 -35 -86 -58q-54 -26 -127 -26q-150 0 -256 112 q-111 111 -113 318q2 209 111 305q102 92 239 92q135 -2 201 -59q65 -62 84 -150q14 -12 31 -8q16 0 22 12q-18 142 -18 226q-17 0 -97 20q-79 16 -184 18q-241 0 -399 -118q-168 -119 -172 -369z" />
<glyph unicode="d" horiz-adv-x="1173" d="M72 20q0 -18 12 -26q115 6 209 6q47 0 110 -4q66 -6 136 -6h10q156 0 299 63q248 139 248 395q-2 295 -283 402q-141 45 -311 45q-236 0 -396 -12q-12 -4 -12 -23q-2 -20 10 -29l62 -8q35 -2 43 -37q6 -36 6 -137v-434q0 -100 -14 -127q-17 -29 -82 -37l-39 -6 q-8 -8 -8 -25zM371 246v487v16q0 53 12 64q22 23 123 23q178 0 293 -97q112 -96 114 -286q0 -398 -366 -404q-58 0 -90 12q-37 13 -56 37q-30 46 -30 137v11z" />
<glyph unicode="e" horiz-adv-x="917" d="M55 20q0 -18 13 -26q139 6 227 6h180q82 0 168 -2q86 0 180 -4q41 78 62 227q-4 17 -23 19q-16 2 -31 -11q-20 -61 -45 -94q-26 -33 -59 -51q-59 -25 -149 -25h-13q-84 0 -121 9q-36 6 -51 20q-12 21 -16 61q-6 39 -6 87v147q-2 31 6 41q6 6 33 6h96q80 0 104 -14 q23 -19 31 -64l10 -39q10 -8 27 -8q16 0 24 12q-4 80 -4 148q0 63 4 143q-8 12 -24 17q-17 0 -27 -13l-10 -39q-8 -45 -31 -61q-24 -16 -104 -16h-96q-27 0 -33 8q-8 6 -6 33v227q-2 47 12 57q10 8 61 8h90q41 0 95 -6q53 -8 80 -43q18 -22 36 -98q13 -8 29 -8t25 12 q-17 152 -23 209q-41 -6 -190 -6h-291q-49 0 -98 2q-45 0 -93 4q-12 -8 -12 -25q0 -18 8 -26l29 -6q31 -5 49 -11q17 -8 25 -22q12 -29 12 -131v-459q0 -100 -14 -129q-17 -29 -82 -35l-56 -6q-8 -8 -8 -25z" />
<glyph unicode="f" horiz-adv-x="840" d="M72 20q0 -18 12 -26q115 6 209 6q88 0 233 -6q13 8 17 26q0 17 -13 25l-63 6q-64 2 -80 33q-16 28 -16 112v19v152q-2 30 6 41q6 6 33 6h110q80 0 105 -15q22 -18 30 -63l11 -39q10 -8 26 -8q17 0 25 12q-4 80 -4 147q0 64 4 144q-8 12 -25 16q-16 0 -26 -12l-11 -39 q-8 -45 -30 -61q-25 -17 -105 -17h-110q-27 0 -33 8q-8 7 -6 33v238v13q0 41 12 50q14 8 57 8h80q39 0 94 -4q54 -6 80 -45q19 -22 37 -98q12 -12 29 -10q16 0 24 14q-8 152 -10 209q-51 -6 -197 -6h-284q-49 0 -96 2q-45 0 -88 4q-13 -4 -13 -23q0 -16 8 -28l25 -6 q57 -9 74 -35q12 -27 12 -129v-459q0 -100 -14 -127q-17 -29 -82 -37l-39 -6q-8 -8 -8 -25z" />
<glyph unicode="g" horiz-adv-x="1083" d="M78 434q0 -80 33 -162q30 -84 94 -149q164 -152 433 -152h7q119 2 205 25q45 10 76 16q30 6 47 6q14 13 2 29q-33 20 -33 86v8v58v16q0 52 12 70q11 20 49 26l37 8q11 11 11 27q-5 16 -17 25q-80 -6 -174 -6q-98 0 -231 6q-13 -11 -13 -25q0 -16 11 -27l65 -12 q68 -8 84 -31q10 -24 10 -92v-51v-10q0 -51 -18 -70q-25 -22 -104 -22q-187 0 -293 118q-111 113 -111 304q0 184 96 294q90 109 252 111q113 0 182 -45q70 -49 109 -170q12 -12 29 -10q16 0 24 12q-16 166 -18 231q-45 11 -117 27q-72 14 -158 14q-161 -2 -272 -43 q-111 -43 -180 -118q-129 -140 -129 -317v-5z" />
<glyph unicode="h" horiz-adv-x="1249" d="M63 872q0 -16 9 -28l47 -6q65 -5 82 -31q14 -29 14 -133v-459q0 -98 -14 -125q-19 -24 -82 -39l-23 -6q-8 -8 -8 -25q0 -18 12 -26q95 6 193 6q90 0 225 -6q12 8 16 26q0 17 -12 25l-55 6q-64 6 -80 35q-16 26 -16 110v19v162q-2 39 12 47q10 6 61 6h361q51 0 63 -6 q11 -8 11 -47v-162q0 -100 -15 -127q-16 -29 -82 -37l-39 -6q-8 -8 -8 -25q0 -18 12 -26q115 6 209 6q93 0 217 -6q13 8 17 26q0 17 -12 25l-48 6q-63 6 -79 35q-17 26 -17 111v18v459v19q0 86 17 112q16 26 79 33l39 6q13 12 13 28q-4 19 -17 23q-114 -6 -209 -6 q-94 0 -209 6q-12 -4 -12 -23q0 -16 8 -28l39 -6q66 -7 82 -33q15 -29 15 -131v-125q0 -37 -13 -45q-14 -10 -61 -8h-361q-47 -2 -61 8q-14 8 -12 45v125q0 53 6 86q4 30 12 45q16 26 78 33l31 6q12 12 12 28q-4 19 -16 23q-105 -6 -201 -6q-92 0 -217 6q-13 -4 -13 -23z " />
<glyph unicode="i" horiz-adv-x="586" d="M72 20q0 -18 12 -26q115 6 209 6t209 -6q12 8 16 26q0 17 -12 25l-39 6q-64 8 -80 37q-16 24 -16 108v19v459v20q0 85 16 111t80 33l39 6q12 12 12 28q-4 19 -16 23q-115 -6 -209 -6t-209 6q-12 -4 -12 -23q0 -16 8 -28l39 -6q65 -7 82 -33q14 -29 14 -131v-459 q0 -100 -14 -127q-17 -29 -82 -37l-39 -6q-8 -8 -8 -25z" />
<glyph unicode="j" horiz-adv-x="623" d="M-8 -254q2 -27 28 -33q25 -8 41 -8q107 2 191 55q82 52 117 131q39 103 39 263v520q0 53 6 86q4 30 12 45q16 26 78 33l30 6q13 12 13 28q-4 19 -17 23q-104 -6 -200 -6q-90 0 -221 6q-13 -4 -13 -23q0 -16 8 -28l52 -6q65 -2 82 -31q14 -29 14 -133v-529q0 -53 -8 -196 q-6 -64 -23 -111q-16 -49 -47 -51q-16 0 -53 23q-41 26 -66 26q-26 0 -43 -31q-18 -28 -20 -59z" />
<glyph unicode="k" horiz-adv-x="1042" d="M80 872q0 -16 8 -28l31 -6q65 -7 82 -33q14 -29 14 -131v-459q0 -98 -14 -125q-19 -29 -82 -39l-25 -6q-8 -8 -8 -25q0 -18 12 -26q99 6 195 6q94 0 209 -6q12 8 16 26q0 17 -12 25l-39 6q-64 8 -80 37q-16 24 -16 108v19v143q-2 43 6 62q6 16 28 16q33 -2 68 -45 q33 -43 47 -63l184 -224q19 -20 19 -33q0 -19 -43 -22l-29 -4q-8 -10 -6 -27q0 -16 14 -24q101 6 201 6q121 0 201 -6q12 8 16 24q0 17 -12 27l-29 2q-63 8 -102 33q-39 26 -92 90l-256 307q-23 27 -21 43q0 12 29 41l94 90q66 68 111 103q45 32 80 51q32 16 71 24 q39 9 68 15q14 12 14 28q-2 19 -18 23q-95 -6 -172 -6q-97 0 -183 6q-14 -4 -14 -23q-2 -20 10 -28l45 -11q20 -4 20 -20q0 -21 -36 -63q-18 -21 -102 -111q-84 -92 -146 -139q-10 -6 -26 -11q-19 -6 -29 -2q-10 9 -10 56v16v115v22q0 85 14 111q16 26 74 31l41 6 q14 12 14 28q0 19 -16 23q-111 -6 -205 -6q-96 0 -201 6q-12 -4 -12 -23z" />
<glyph unicode="l" horiz-adv-x="864" d="M72 20q0 -18 12 -26q115 6 209 6h168q80 0 162 -2q86 0 180 -4q41 78 61 227q-4 17 -22 19q-17 2 -31 -11q-21 -61 -45 -94q-27 -33 -57 -51q-60 -25 -145 -25h-13q-78 0 -111 11q-35 10 -47 22q-12 17 -16 55q-6 39 -6 86v441v18q0 87 18 111q16 24 78 35l27 6 q12 12 12 28q-4 19 -17 23q-100 -6 -196 -6q-94 0 -209 6q-12 -4 -12 -23q0 -16 8 -28l39 -6q65 -7 82 -33q14 -29 14 -131v-459q0 -100 -14 -127q-17 -29 -82 -37l-39 -6q-8 -8 -8 -25z" />
<glyph unicode="m" horiz-adv-x="1382" d="M51 20q0 -18 10 -26q99 6 170 6q86 0 168 -6q13 8 15 26q0 17 -13 25l-67 6q-60 4 -61 132q0 12 1 24q0 147 5 268q4 49 6 121q0 72 6 84q14 -8 41 -64q24 -57 41 -96l133 -258q28 -53 67 -133q37 -80 54 -139q10 -6 19.5 -6t19.5 6q24 59 75 168q52 108 70 141l125 235 q24 46 53 99q31 55 35 57q6 -14 6 -59v-473q0 -60 -8 -80q-10 -23 -57 -27l-46 -6q-8 -8 -8 -25q0 -16 11 -26q88 6 180 6q86 0 205 -6q12 8 14 26q0 17 -12 25l-60 6q-45 8 -55 37t-12 64q-11 161 -11 429v85v18q0 76 15 111q16 34 84 43l45 6q12 12 12 28q-2 19 -18 23 q-93 -6 -168 -6q-49 0 -119 6q-21 -64 -45 -123q-25 -61 -96 -197l-103 -196q-28 -57 -51 -96q-25 -41 -33 -47q-8 10 -33 57q-26 45 -41 67l-126 244q-54 98 -78 164q-29 61 -29 127q-74 -6 -125 -6h-24q-78 0 -158 6q-12 -8 -12 -25q0 -16 8 -26l49 -6q53 -5 74 -29 q18 -27 18 -76q0 -117 -6 -299q-10 -184 -23 -280q-4 -52 -18 -72q-16 -23 -66 -31l-43 -6q-10 -8 -10 -25z" />
<glyph unicode="n" horiz-adv-x="1186" d="M57 872q-2 -16 9 -28l30 -6q41 -9 76 -29q31 -21 39 -47q4 -29 4 -80v-367q0 -147 -14 -202q-15 -58 -56 -62l-61 -6q-10 -8 -10 -25q0 -18 12 -26q94 6 170 6q80 0 182 -6q13 10 17 26q0 15 -13 25l-65 6q-53 2 -72 60q-16 55 -16 204v271v27q0 61 8 59q41 -35 158 -158 l311 -332q174 -186 190 -209h5q27 0 38 19v47v35q-4 16 -4 35q-2 81 -1 120v344q0 152 16 209q14 56 53 56l61 6q13 10 13 26q-2 17 -15 25q-90 -6 -170 -6q-78 0 -182 6q-12 -8 -12 -25q0 -16 8 -26l65 -6q58 -2 74 -58q14 -55 14 -207v-237q1 -12 1 -23q0 -52 -13 -59 q-20 18 -84 86q-63 65 -102 104l-193 199q-133 133 -200 252q-37 -6 -82 -6h-27q-58 0 -149 6q-13 -6 -13 -23z" />
<glyph unicode="o" horiz-adv-x="1159" d="M78 436q0 -196 135 -327q131 -134 371 -138q223 2 358 138q137 131 139 339q0 195 -123 330q-125 137 -374 139q-226 -2 -363 -137q-141 -133 -143 -344zM260 469q2 215 100 305q48 45 101 66q53 18 108 18q170 -4 252 -137q78 -129 78 -303q-2 -207 -92 -297 q-88 -90 -208 -90h-5q-176 4 -254 141q-80 130 -80 289v8z" />
<glyph unicode="p" horiz-adv-x="913" d="M80 20q0 -18 12 -26q105 6 201 6q92 0 217 -6q12 8 16 26q0 17 -12 25l-47 6q-64 6 -80 35q-16 26 -16 110v19v551q-2 43 12 57q12 13 72 13q219 -3 223 -209q0 -195 -191 -234q-12 -16 2 -37q10 -1 20 -1q66 0 167 32q61 21 114 76q54 55 56 157q0 56 -17 99 q-16 41 -41 67q-24 31 -53 50q-26 16 -55 24q-80 33 -246 35q-160 0 -328 -12q-12 -4 -12 -23q-2 -20 10 -29l62 -10q35 -2 43 -37q6 -37 6 -135v-434q0 -100 -14 -127q-17 -27 -82 -37l-31 -6q-8 -8 -8 -25z" />
<glyph unicode="q" horiz-adv-x="1159" d="M78 436q2 -192 123 -315q114 -123 295 -144q45 -4 75 -36q47 -52 117 -107q70 -57 141 -96q131 -62 248 -62q49 3 101 15q51 12 81 35q5 6 5 11q0 9 -13 15q-24 -14 -88 -16q-33 0 -117 22q-79 33 -159 99q-82 65 -135 116q-15 15 -11 25q154 43 246 162t94 288 q0 195 -123 330q-125 137 -374 139q-226 -2 -363 -137q-141 -133 -143 -344zM260 469q2 215 100 305q48 45 101 66q53 18 108 18q170 -4 252 -137q78 -129 78 -303q-2 -207 -92 -297q-88 -90 -208 -90h-5q-176 4 -254 141q-80 130 -80 289v8z" />
<glyph unicode="r" horiz-adv-x="995" d="M78 20q0 -18 14 -26q105 6 201 6q92 0 217 -6q12 8 16 26q0 17 -12 25l-47 6q-64 6 -80 35q-16 26 -16 110v19v145q0 21 10 29q8 4 47 4q25 0 47 -6q23 -8 35 -27q70 -110 149 -221q116 -153 279 -153h8q59 0 86 10q6 7 6 15.5t-6 17.5q-51 0 -108 43q-50 43 -115 120 q-68 80 -145 207q-11 17 0 31q65 21 122 72q58 51 60 147q0 82 -33 131q-35 49 -92 74q-55 27 -127 35q-72 6 -146 6q-169 0 -339 -12q-15 -7 -13 -25q0 -20 13 -27l57 -8q35 -2 43 -37q6 -36 6 -137v-434q0 -100 -14 -127q-17 -27 -82 -37l-31 -6q-12 -8 -10 -25zM371 500 v278v7q0 33 18 42q19 9 72 9q108 -3 164 -58q51 -55 51 -135q-2 -195 -195 -195h-8h-20q-52 0 -66 9q-16 7 -16 36v7z" />
<glyph unicode="s" horiz-adv-x="766" d="M76 246q0 -80 16 -133q14 -56 27 -78q22 -17 84 -37q59 -25 151 -27q156 2 244 72q88 68 90 188q-2 105 -53 168q-53 66 -113 92l-127 66q-61 33 -98 72q-39 37 -39 90q0 55 39 96t127 43q90 -2 135 -59q25 -25 37 -58q12 -30 18 -59q11 -8 31 -8q19 0 23 12 q0 141 -29 201q-51 10 -92 20q-45 10 -99 10q-319 -8 -321 -253q2 -84 55 -146q51 -61 127 -100l92 -47q88 -43 117 -92q27 -50 27 -101q0 -72 -45 -108q-47 -39 -127 -39q-49 0 -92 26q-43 23 -74 58q-66 73 -78 135q-10 14 -27 14q-18 -2 -26 -18z" />
<glyph unicode="t" horiz-adv-x="958" d="M20 686q17 -27 52 -10q34 104 86 131q47 22 127 22h14h63q31 0 39 -6q4 -8 4 -47v-561q0 -100 -14 -129q-16 -29 -82 -35l-55 -6q-8 -8 -8 -25q0 -18 12 -26q129 6 225 6q99 0 226 -6q12 8 16 26q0 17 -12 25l-56 6q-63 6 -80 35q-16 26 -16 110v19v561q0 39 10 47 q9 6 35 6h70h13q82 0 124 -24q45 -27 53 -125q8 -10 27 -10q16 0 24 12v28q0 49 5 103q4 68 16 109q-12 16 -37 6q-10 -27 -29 -31q-22 -8 -77 -8h-570h-22q-42 0 -62 6q-26 4 -28 33q-7 6 -17 6q-12 0 -20 -6q-19 -92 -56 -242z" />
<glyph unicode="u" horiz-adv-x="1126" d="M63 872q0 -16 9 -28l28 -6q64 -9 82 -35q15 -27 15 -129v-328v-9q0 -192 88 -280q94 -86 290 -86q383 2 381 400v202q0 152 17 209q14 56 53 56l61 6q13 10 13 26q-2 17 -15 25q-90 -6 -170 -6q-82 0 -172 6q-12 -8 -12 -25q0 -16 8 -26l43 -6q66 -5 84 -60 q17 -55 17 -205v-190q0 -154 -62 -246q-63 -96 -203 -96q-145 0 -204 96q-62 89 -62 239v9v289v19q0 86 17 112q16 26 79 33l39 6q13 12 13 28q-4 19 -17 23q-114 -6 -209 -6q-96 0 -198 6q-13 -4 -13 -23z" />
<glyph unicode="v" horiz-adv-x="991" d="M-20 870q0 -16 8 -26l67 -17q35 -4 56 -30q20 -29 63 -127l231 -514q41 -90 68 -176q12 -9 25 -9q16 0 24 9q45 126 146 348l155 333q47 103 72 136q16 18 31 26q16 6 36 8l58 13q9 8 9 18q0 4 -1 8q-2 17 -18 25q-23 -2 -60 -2q-37 -4 -86 -4q-80 0 -168 6 q-12 -8 -12 -25q-4 -16 8 -26l33 -6q45 -9 55 -23q8 -14 -6 -47q-43 -121 -121 -295q-55 -129 -114 -258q-43 94 -117 260l-100 227q-33 76 -31 105q0 26 39 31l43 6q14 10 14 26q0 17 -14 25q-92 -6 -199 -6q-100 0 -184 6q-10 -8 -10 -25z" />
<glyph unicode="w" horiz-adv-x="1450" d="M-12 870q0 -16 8 -26l43 -13q39 -8 61 -26q21 -21 35 -55l281 -555q18 -33 51 -101q33 -69 47 -114q12 -9 25 -9q16 0 24 9q23 49 78 161q55 111 106 215q31 -47 95 -182q61 -135 84 -194q12 -9 24 -9q17 0 25 9q57 129 117 262l194 419q45 101 70 134q24 30 67 36l58 13 q12 8 12 26q0 17 -14 25q-82 -6 -154 -6q-76 0 -154 6q-10 -10 -10 -23q0 -16 10 -28l41 -6q43 -2 41 -25q-4 -23 -41 -109l-145 -339q-66 -152 -82 -185q-25 53 -88 176l-55 113q-13 29 -13 43t13 33q49 90 106 190q21 37 45 66q25 28 72 37l35 6q12 8 12 26q-2 17 -14 25 q-60 -6 -142 -6q-90 0 -139 6q-12 -8 -12 -25q-2 -18 10 -26l37 -6q35 -5 43 -15q6 -10 -10 -47l-35 -76q-29 -61 -62 -120q-24 49 -73 153l-19 39q-14 35 -12 49q4 12 31 17l24 6q13 8 13 26q-2 17 -15 25q-63 -6 -155 -6q-91 0 -158 6q-12 -8 -12 -25q0 -18 8 -26l37 -6 q34 -5 55 -17q18 -12 33 -43l149 -305q13 -22 13 -35q0 -14 -13 -35l-35 -73q-55 -111 -75 -150q-25 47 -76 148l-191 381q-18 38 -28 63q-13 25 -15 37q-4 22 35 29l27 6q10 10 12 26q0 17 -14 25q-94 -6 -180 -6q-78 0 -154 6q-12 -8 -12 -25z" />
<glyph unicode="x" horiz-adv-x="983" d="M-18 20q0 -18 12 -26q90 6 168 6q80 0 182 -6q16 8 16 26q0 17 -12 25l-31 6q-46 5 -46 29q0 12 12 29l102 147q31 43 47 68q19 24 33 41q24 -25 82 -109l100 -139q29 -35 25 -47q-4 -11 -47 -19l-35 -6q-13 -8 -8 -25q2 -18 14 -26q100 6 199 6q90 0 206 -6q13 8 15 26 q0 17 -13 25l-73 10q-60 4 -133 99l-222 299q-18 24 -16 41q0 14 23 38l168 207q26 37 59 62q31 26 74 32l63 11q12 10 12 26q0 17 -14 25q-90 -6 -154 -6q-65 0 -167 6q-15 -8 -15 -25q0 -18 15 -26l32 -6q40 -7 40 -27q0 -11 -13 -27l-100 -141q-45 -66 -74 -100 q-29 34 -76 100l-94 127q-21 31 -19 47q5 14 31 21l31 6q14 12 14 28q-2 19 -18 23q-64 -6 -180 -6q-80 0 -187 6q-12 -8 -12 -25q-2 -18 8 -26l49 -11q49 -8 74 -24q23 -16 53 -62l211 -280q21 -23 21 -37t-23 -43l-180 -233q-27 -37 -64 -66q-38 -29 -94 -37l-63 -6 q-9 -6 -9 -16q0 -4 1 -9z" />
<glyph unicode="y" horiz-adv-x="897" d="M-10 872v-6q0 -12 6 -22l53 -11q39 -4 64 -26q24 -23 53 -84l149 -277q39 -65 50 -96q8 -33 8 -78v-77q0 -86 -15 -111q-16 -27 -82 -33l-51 -6q-8 -8 -8 -25q0 -18 12 -26q131 6 222 6q90 0 221 -6q12 8 16 26q0 17 -12 25l-51 6q-64 6 -80 33q-17 23 -17 95v16v110v10 q0 37 13 68q12 37 65 119l127 205q45 73 70 98q24 22 67 28l49 11q13 12 13 28q-4 19 -17 23q-82 -6 -145 -6q-68 0 -156 6q-14 -8 -14 -25q-2 -16 10 -26l43 -6q38 -1 38 -27q0 -20 -23 -55l-82 -150q-52 -92 -99 -170q-45 80 -92 170l-76 146q-19 38 -19 55q0 5 1 8 q4 18 37 23l29 6q14 10 14 26q-4 17 -16 25q-91 -6 -175 -6q-98 0 -188 6q-12 -4 -12 -23z" />
<glyph unicode="z" horiz-adv-x="965" d="M63 27q-4 -7 -4 -13q0 -11 11 -20q43 6 155 6h359q106 0 180 -2q76 0 119 -4q10 14 18 39q10 24 16 55q17 64 27 143q-4 11 -20 19q-19 4 -33 -8q-19 -62 -43 -99q-29 -37 -60 -51q-60 -33 -217 -33h-18q-162 0 -207 7q-47 4 -45 18q0 8 21 37q18 26 43 57q53 70 71 94 l236 322q157 207 227 270q6 10 2 21q-6 6 -16 10q-39 -6 -150 -6h-416h-21q-41 0 -69 6q-37 6 -37 35q-4 10 -14 10q-12 0 -20 -12q-17 -109 -60 -254q8 -13 27 -17q16 -2 27 7q36 106 94 139q51 26 153 26h15h186q45 0 53 -8q6 -10 -12 -35q-64 -88 -129 -176l-307 -415 q-33 -46 -76 -95q-41 -51 -66 -73z" />
<glyph unicode="{" horiz-adv-x="655" d="M137 526q64 -4 103 -20q36 -17 51 -41q18 -25 22 -53q2 -27 2 -56q0 -94 -14 -202q-16 -111 -16 -220q0 -88 32 -139q31 -51 78 -78q47 -24 96 -32q48 -9 84 -9q9 11 9 23t-9 18q-55 11 -88 33q-34 19 -53 47q-33 56 -31 117q2 100 21 205q16 106 18 211q2 176 -153 215 v8q155 41 153 215q-2 106 -18 211q-21 106 -21 205q-2 63 31 120q31 56 141 76q17 21 0 41q-81 2 -180 -37q-47 -24 -78 -75q-32 -54 -32 -146q2 -106 16 -217q12 -110 14 -205q0 -24 -2 -51q-4 -29 -22 -53q-15 -25 -51 -41q-39 -19 -103 -25q-14 -22 0 -45z" />
<glyph unicode="|" horiz-adv-x="489" d="M184 -512h121v2048h-121v-2048z" />
<glyph unicode="}" horiz-adv-x="655" d="M74 -301q0 -12 6 -23q86 -2 184 41q47 27 78 78q29 51 29 139q-2 109 -17 220q-14 108 -14 202q0 29 6 56q2 28 21 53q30 49 151 61q16 23 0 45q-61 6 -98 25q-35 16 -53 41q-19 24 -21 53q-6 27 -6 51q0 95 14 205q15 111 17 217q0 92 -29 146q-31 51 -78 75 q-43 25 -94 33q-25 4 -45 4h-45q-6 -8 -6 -18q0 -13 6 -23q59 -10 92 -28q33 -19 51 -48q31 -57 29 -120q-2 -99 -21 -205q-18 -105 -18 -211q-2 -174 154 -215v-8q-156 -39 -154 -215q2 -105 18 -211q19 -105 21 -205q2 -61 -29 -117q-33 -57 -143 -80q-6 -6 -6 -18z" />
<glyph unicode="~" d="M156 264q6 -22 28 -28q21 -7 39 0q21 40 39 67q14 25 33 39q35 27 110 27h254q66 -2 115 39q35 34 59 90q25 53 35 77q-6 25 -26 31q-19 6 -41 -2q-33 -76 -70 -104q-37 -29 -113 -29h-253q-64 2 -117 -43q-29 -35 -56 -84q-26 -51 -36 -80z" />
<glyph unicode="&#xa1;" horiz-adv-x="451" d="M111 686q0 -51 36 -80q33 -33 78 -33q54 0 84 33q31 31 31 80q0 51 -31 86q-30 35 -84 35q-49 0 -82 -33q-32 -35 -32 -88zM125 -485q0 -64 100 -60q51 0 76 13q25 12 25 47q0 32 -15 182l-59 661q-8 11 -25 11q-16 0 -28 -11l-60 -661q-14 -150 -14 -182z" />
<glyph unicode="&#xa2;" horiz-adv-x="836" d="M82 395q6 -303 321 -356l-22 -172q12 -12 39 -12q24 0 33 12l20 166q96 -2 182 37q84 36 148 120q2 33 -31 35q-72 -100 -229 -102q-31 0 -58 6l78 627q90 -19 144 -76q16 -21 32 -21q25 2 27 72q-2 49 -35 78q-78 16 -160 16l17 131q-8 15 -33 15t-37 -15l-16 -135 q-170 -14 -293 -123q-125 -108 -127 -303zM233 438q3 158 78 238q74 80 183 84l-76 -613q-88 39 -135 117q-50 80 -50 174z" />
<glyph unicode="&#xa3;" d="M51 10q0 -18 17 -28q12 -11 30 -11q23 2 64 19q20 10 33 18q12 10 12 19q0 22 22 43q19 16 50 18q67 -4 180 -65q57 -25 118 -46q62 -22 127 -22q127 2 218 70q43 30 67 67q23 39 23 76q0 39 -19 65q-20 27 -55 27q-55 0 -49 -72q12 -49 -2 -96q-13 -49 -82 -51 q-76 2 -185 53q-49 23 -96 41q-49 19 -84 23q-53 4 -94 -2v8q221 131 225 383q-2 30 43 28h248q14 13 14 35q0 21 -14 31h-250q-24 0 -30 6q-9 6 -11 25q-24 182 -18 364q8 105 53 154q43 47 92 47q62 0 103 -21q39 -20 75 -67q19 -21 29 -19q23 0 41 29q16 23 19 43 q0 47 -25 72q-33 33 -162 37q-168 -2 -272 -123q-107 -121 -107 -316q0 -92 4 -137q5 -47 5 -63q4 -21 -3 -25q-6 -6 -26 -6h-187q-12 -10 -12 -31q0 -22 12 -35h189q24 0 29 -4q4 -6 4 -24q0 -53 -4 -109q-7 -59 -25 -114q-18 -56 -51 -99q-35 -45 -90 -73 q-111 -35 -152 -70q-43 -37 -41 -72z" />
<glyph unicode="&#xa4;" d="M72 666q0 -158 94 -271l-92 -92q8 -31 37 -57q28 -29 63 -41l84 104q111 -82 256 -82t256 82l84 -104q39 12 68 41q28 26 32 57l-92 92q92 113 94 271q-2 157 -94 270l92 92q-4 35 -32 61q-29 27 -68 37l-84 -104q-111 82 -256 82t-256 -82l-84 104q-35 -10 -63 -37 q-29 -26 -37 -61l92 -92q-94 -113 -94 -270zM188 666q2 147 99 245q94 97 227 99q133 -2 227 -99q97 -98 99 -245q-2 -148 -99 -244q-94 -98 -227 -100q-131 2 -225 98q-99 96 -101 246z" />
<glyph unicode="&#xa5;" d="M8 1272q0 -13 6 -23l43 -10q58 -10 88 -43q31 -35 70 -121l180 -350h-243q-11 -10 -11 -31q0 -22 11 -35h274l18 -41q15 -38 15 -124h-307q-11 -11 -11 -31q0 -23 11 -35h311v-176v-94q-2 -37 -10 -60q-17 -43 -78 -49l-76 -8q-8 -8 -6 -23q0 -16 10 -24q123 6 229 6 q117 0 238 -6q12 8 14 24q0 15 -10 23l-76 8q-59 4 -73 47q-17 41 -15 156v176h309q13 12 13 35q0 20 -13 31h-305q-2 79 6 112l15 53h284q13 13 13 35q0 21 -13 31h-253l161 311q39 80 82 137q41 56 86 66l49 10q9 10 9 25q0 12 -13 18q-75 -6 -153 -6q-99 0 -193 6 q-12 -4 -12 -18q-2 -15 6 -25l78 -14q47 -6 47 -37q-2 -14 -31 -84q-32 -72 -71 -147l-93 -185q-41 -94 -53 -94q-16 6 -67 125l-113 242q-10 26 -35 82q-26 53 -28 67q-3 23 40 31l78 14q8 10 8 25q0 14 -12 18q-67 -6 -194 -6q-138 0 -222 6q-12 -6 -12 -20z" />
<glyph unicode="&#xa6;" horiz-adv-x="489" d="M184 358v-716h121v716h-121zM184 666h121v716h-121v-716z" />
<glyph unicode="&#xa7;" horiz-adv-x="1036" d="M102 848q2 -158 80 -273q76 -116 187 -223q94 -88 186 -192q43 -54 72 -103q26 -51 26 -98q-2 -61 -45 -92q-47 -35 -96 -35q-37 0 -76 14q-43 15 -98 58q-19 18 -51 18q-33 0 -51 -22q-21 -23 -21 -52q0 -43 47 -71q45 -29 117 -31q248 6 399 193q154 178 156 378 q0 256 -252 478q-160 147 -225 229q-68 82 -66 154q0 59 37 92q35 30 84 30q70 0 168 -59q20 -16 57 -16q31 0 49 22q19 21 19 43q0 31 -35 62q-37 30 -123 32q-223 -6 -381 -174q-162 -168 -164 -362zM203 938q0 76 28 127q29 51 78 92q-2 -119 58 -215q57 -98 217 -250 q120 -110 186 -219q63 -106 63 -246q0 -61 -18 -121q-20 -61 -80 -116q0 121 -59 221q-64 100 -215 248q-176 184 -219 299q-25 59 -31 104q-8 43 -8 76z" />
<glyph unicode="&#xa8;" horiz-adv-x="737" d="M82 1108q2 -94 96 -94q90 2 94 100q0 37 -24 66q-25 26 -70 26q-43 0 -69 -26q-29 -29 -27 -72zM465 1108q4 -94 98 -94q90 2 92 100q0 37 -24 66q-25 26 -68 26t-69 -26q-29 -29 -29 -72z" />
<glyph unicode="&#xa9;" horiz-adv-x="1618" d="M92 676q2 -299 207 -500q197 -205 510 -209q317 4 514 209q199 201 203 500q-4 303 -203 504q-197 200 -514 204q-313 -4 -510 -204q-205 -201 -207 -504zM209 678q2 270 174 446q166 176 426 180q262 -4 430 -180t170 -446q-2 -270 -170 -447q-168 -182 -430 -184 q-260 2 -426 184q-172 177 -174 447zM420 672q0 -154 110 -275q111 -125 336 -127q76 0 150 21q69 16 100 26q21 37 37 97q16 57 18 100q-16 23 -41 6q-36 -88 -98 -139q-63 -55 -153 -55q-138 0 -220 100q-86 96 -86 258q0 145 74 244q74 98 219 100q187 0 242 -174 q10 -6 22 -4q15 0 21 10q-12 107 -25 191q-22 4 -90 18q-69 14 -157 14q-199 -2 -326 -112q-131 -111 -133 -299z" />
<glyph unicode="&#xaa;" horiz-adv-x="680" d="M68 635q0 -58 38 -98q37 -46 117 -46q39 0 84 21q43 16 60 27q20 12 32 12q15 0 31 -19q49 -43 94 -41q76 0 148 66q6 10 2 20q-6 9 -19 9q-28 -21 -59 -21q-43 0 -57 33q-15 33 -13 82l11 250q6 80 -29 127q-37 47 -139 49q-66 -2 -129 -29q-64 -28 -107 -63 q-33 -27 -47 -52q-14 -24 -14 -43q0 -26 28 -26q43 2 92 35q13 10 17 26q2 17 2 27q6 35 35 49q26 14 57 14q72 -2 92 -43q17 -43 17 -100v-25q0 -16 -7 -28q-8 -10 -38 -23q-72 -22 -220 -78q-32 -12 -55 -40q-24 -31 -24 -72zM203 651q2 58 47 82q41 23 84 33q41 16 59 16 q17 -2 12 -28l-4 -107q0 -31 -16 -51q-6 -8 -29 -19q-24 -14 -61 -14q-51 0 -72 33q-20 29 -20 55z" />
<glyph unicode="&#xab;" horiz-adv-x="774" d="M106 389q127 -153 244 -309q27 6 35 26l-143 291q-11 23 0 49l143 287q-10 25 -35 27q-117 -154 -244 -307q-28 -31 0 -64zM403 389q127 -153 244 -309q27 6 35 26l-143 291q-11 23 0 49l143 287q-10 25 -35 27q-117 -154 -244 -307q-28 -31 0 -64z" />
<glyph unicode="&#xac;" d="M68 524h768v-422h120v523h-888v-101z" />
<glyph unicode="&#xad;" horiz-adv-x="655" d="M66 410q-3 -35 30 -66l477 45q17 21 17 51q0 43 -31 66l-477 -45q-16 -19 -16 -51z" />
<glyph unicode="&#xae;" horiz-adv-x="1618" d="M92 676q2 -299 207 -500q197 -205 510 -209q317 4 514 209q199 201 203 500q-4 303 -203 504q-197 200 -514 204q-313 -4 -510 -204q-205 -201 -207 -504zM209 678q2 270 174 446q166 176 426 180q262 -4 430 -180t170 -446q-2 -270 -170 -447q-168 -182 -430 -184 q-260 2 -426 184q-172 177 -174 447zM471 1051q0 -11 6 -21l31 -4q53 -2 63 -33q9 -31 9 -123v-387q0 -92 -9 -123q-10 -32 -63 -38l-31 -5q-6 -8 -4 -18q0 -12 8 -20q74 4 164 4q88 0 162 -4q12 8 12 20q0 10 -10 18l-41 5q-43 4 -57 34q-15 31 -13 127v115q0 18 11 22 q8 5 41 5q45 0 63 -23q31 -43 61 -94q29 -55 52 -88q59 -82 110 -115q49 -35 127 -35q43 0 62 6q10 13 0 25q-13 0 -31 6q-19 6 -41 23q-94 90 -223 313q-13 16 -8 31q51 18 100 67q47 49 49 127q0 68 -25 111q-26 41 -67 61q-41 23 -90 31q-25 4 -49 4h-50q-159 0 -309 -8 q-10 -6 -10 -16zM698 723v250q-2 26 11 39q10 8 63 8q84 -2 127 -51q43 -50 43 -115q0 -78 -39 -125q-39 -49 -125 -49q-51 0 -65 8q-17 6 -15 35z" />
<glyph unicode="&#xaf;" horiz-adv-x="737" d="M109 1128q0 -32 14 -55h491q17 23 17 55q0 29 -17 50h-491q-14 -21 -14 -50z" />
<glyph unicode="&#xb0;" horiz-adv-x="713" d="M82 1046q2 -127 84 -194q78 -70 190 -70q117 0 195 70q78 67 80 194q-2 123 -80 195q-78 70 -195 70q-112 0 -190 -70q-82 -72 -84 -195zM197 1046q0 91 47 142q45 51 112 51q70 0 115 -51t45 -142q0 -86 -45 -137q-45 -55 -115 -55q-67 0 -112 55q-47 51 -47 137z" />
<glyph unicode="&#xb1;" d="M119 0h788v100h-788v-100zM119 489h334v-317h120v317h334v101h-334v303h-120v-303h-334v-101z" />
<glyph unicode="&#xb2;" horiz-adv-x="737" d="M59 516q0 -8 11 -14q41 4 153 4h148q125 0 231 -4q21 20 39 63q18 45 41 99q-14 24 -39 14q-33 -47 -78 -62q-45 -14 -117 -12h-145q-27 0 -29 16q-2 13 70 82l115 115q88 88 123 154q32 65 32 129q0 94 -63 153q-64 58 -178 58q-197 -2 -285 -195q0 -12 14 -18 q13 -6 25 0q72 127 184 129q150 -4 154 -172q-2 -97 -62 -185q-59 -90 -127 -155q-131 -133 -213 -181q-4 -8 -4 -18z" />
<glyph unicode="&#xb3;" horiz-adv-x="737" d="M86 506q2 -45 49 -62q43 -18 96 -18q56 0 134 27q38 12 81 34q41 19 80 47q142 109 142 252q-2 93 -60 146q-57 49 -141 49q-29 0 -16 20q88 43 120 82q29 39 29 82q0 62 -53 103t-144 43q-180 -4 -264 -166q6 -23 35 -23q74 117 174 119q103 0 109 -109q-4 -79 -64 -114 q-43 -29 -108 -58q-68 -28 -109 -47q-8 -39 27 -55q24 25 61 43q37 16 86 16q92 -2 133 -55q37 -55 37 -127q-4 -123 -84 -188q-80 -66 -149 -66q-45 0 -66 37q-8 21 -24 37q-19 16 -43 16q-66 -2 -68 -65z" />
<glyph unicode="&#xb4;" horiz-adv-x="737" d="M252 969q6 -27 33 -25l264 277q35 38 35 61q0 25 -37 55q-37 31 -64 27q-22 -6 -45 -49z" />
<glyph unicode="&#xb5;" horiz-adv-x="1049" d="M82 780q-2 -16 6 -26l25 -11q45 -14 55 -47q6 -32 6 -127v-1056q0 -62 41 -64q37 2 80 49q20 23 33 43q12 23 12 37q-2 27 -33 107q-35 77 -37 166v116q0 23 6 31q7 6 15 2q16 -6 47 -16q29 -11 67 -13q105 2 181 41q37 17 67 35q31 19 51 31q19 0 19 -29v-84 q8 -12 24 -14q56 31 132 47q75 18 137 29q12 8 12 30q0 21 -10 29q-43 -10 -80 -10q-41 0 -51 53q-15 51 -13 170v344q0 117 7 178q-2 12 -19 15q-37 -15 -104 -25q-70 -8 -135 -12q-13 -6 -13 -21q0 -16 10 -24l27 -11q25 -8 39 -14q16 -8 25 -25q12 -26 12 -122v-346 q0 -41 -8 -66q-13 -25 -33 -43q-35 -27 -78 -43q-43 -18 -88 -18q-57 0 -94 18q-37 16 -57 47q-41 64 -39 170v342q0 139 6 178q-2 12 -21 15q-71 -29 -219 -37q-10 -4 -10 -19z" />
<glyph unicode="&#xb6;" d="M121 913q2 -186 145 -297q137 -114 342 -114q19 0 27 -13q8 -14 8 -53v-309q0 -80 -10 -129q-10 -51 -29 -80q-16 -27 -35 -39q-20 -12 -39 -12q-28 0 -47 18q-20 17 -20 45q0 31 12 47q10 15 16 23q-8 27 -36 45q-33 16 -68 16q-16 -6 -37 -32q-22 -27 -22 -74 q2 -82 61 -115q57 -35 119 -35q82 3 133 39q49 35 72 93q24 59 32 126q5 70 5 136v950q-3 76 16 100q18 25 92 35l80 14q10 9 10 23t-10 20q-62 11 -248 11q-264 0 -414 -109q-155 -111 -155 -330z" />
<glyph unicode="&#xb8;" horiz-adv-x="737" d="M209 -358q0 -62 108 -66q78 2 136 49q57 45 59 117q-4 84 -88 133q-31 21 -14 45l55 80h-68l-110 -170v-8q51 -21 86 -55q32 -35 32 -72q0 -35 -16 -49q-16 -15 -35 -15q-18 2 -43 31q-12 12 -24 23q-15 6 -31 6q-23 0 -35 -17q-12 -16 -12 -32z" />
<glyph unicode="&#xb9;" horiz-adv-x="737" d="M178 1221q0 -13 8 -21l64 -6q45 -2 55 -31q8 -26 8 -86v-395q0 -74 -10 -100q-12 -25 -76 -33l-35 -4q-6 -6 -6 -21q0 -16 9 -22q90 4 180 4q96 0 188 -4q10 6 10 22q0 15 -8 21l-35 4q-59 8 -71 33q-17 26 -15 100v469q0 80 4 149q-2 11 -14 11q-41 -17 -102 -35 q-62 -21 -148 -37q-6 -6 -6 -18z" />
<glyph unicode="&#xba;" horiz-adv-x="793" d="M66 790q2 -133 92 -215q90 -84 233 -84q156 3 246 91q88 86 90 223q-2 135 -92 217t-232 84q-147 -2 -239 -88q-96 -86 -98 -228zM217 811q0 111 51 176q47 64 119 66q53 0 90 -25q37 -27 57 -68q41 -88 41 -178q0 -82 -34 -155q-19 -35 -52 -58q-34 -24 -84 -24 q-98 2 -143 86q-45 82 -45 180z" />
<glyph unicode="&#xbb;" horiz-adv-x="774" d="M92 106q8 -20 35 -26q117 156 244 309q28 33 0 64q-127 153 -244 307q-23 -2 -35 -27l144 -287q10 -26 0 -49zM389 106q8 -20 35 -26q117 156 244 309q28 33 0 64q-127 153 -244 307q-23 -2 -35 -27l143 -287q11 -26 0 -49z" />
<glyph unicode="&#xbc;" horiz-adv-x="1597" d="M90 1221q0 -13 8 -21l64 -6q45 -2 55 -31q8 -26 8 -86v-395q0 -74 -10 -100q-12 -25 -76 -33l-35 -4q-6 -6 -6 -21q0 -16 8 -22q91 4 181 4q96 0 188 -4q10 6 10 22q0 15 -8 21l-35 4q-59 8 -71 33q-17 26 -15 100v469q0 80 4 149q-2 11 -14 11q-41 -17 -102 -35 q-62 -21 -148 -37q-6 -6 -6 -18zM283 -29q4 -51 55 -53q444 688 901 1374q-25 47 -64 47q-440 -684 -892 -1368zM819 258q0 -20 19 -20h317q27 0 35 -5q4 -8 4 -32v-25q0 -80 -10 -102q-13 -25 -74 -31l-37 -4q-6 -10 -4 -23q0 -12 8 -20q55 4 182 4q121 0 177 -4 q10 8 10 20q0 13 -6 23l-37 4q-58 4 -70 29q-12 22 -10 104v29q0 20 8 28q4 5 31 5h67q13 10 13 30q0 21 -13 29h-75q-19 0 -25 6t-6 23v235q0 19 -2 31q-2 8 -21 8q-55 -2 -94 -23q-14 -10 -12 -24v-223q0 -21 -4 -27q-8 -6 -33 -6h-184q-64 -4 -37 25l422 540q4 6 4 12 q-2 11 -45 11q-27 0 -43 -25l-436 -561q-21 -23 -19 -41z" />
<glyph unicode="&#xbd;" horiz-adv-x="1597" d="M104 1221q0 -13 9 -21l63 -6q45 -2 55 -31q9 -26 9 -86v-395q0 -74 -11 -100q-12 -25 -75 -33l-35 -4q-6 -6 -6 -21q0 -16 8 -22q90 4 180 4q96 0 188 -4q11 6 11 22q0 15 -9 21l-34 4q-60 8 -72 33q-16 26 -14 100v469q0 80 4 149q-2 11 -15 11q-41 -17 -102 -35 q-61 -21 -147 -37q-7 -6 -7 -18zM266 -29q4 -51 56 -53q444 688 901 1374q-25 47 -64 47q-440 -684 -893 -1368zM909 10q0 -8 10 -14q41 4 154 4h148q124 0 231 -4q20 20 39 63q18 45 41 99q-15 24 -39 14q-33 -47 -78 -61q-45 -15 -117 -13h-145q-27 0 -29 17q-2 12 70 82 l115 114q88 88 122 154q33 65 33 129q0 94 -63 153q-64 58 -178 58q-197 -2 -285 -195q0 -12 14 -18q13 -6 25 0q72 127 184 129q150 -4 154 -172q-2 -96 -62 -184q-59 -91 -127 -156q-131 -133 -213 -180q-4 -9 -4 -19z" />
<glyph unicode="&#xbe;" horiz-adv-x="1597" d="M76 506q2 -45 49 -62q43 -18 96 -18q55 0 133 27q39 12 82 34q41 19 80 47q141 109 141 252q-2 93 -59 146q-57 49 -141 49q-29 0 -17 20q88 43 121 82q29 39 29 82q0 62 -53 103q-54 41 -144 43q-180 -4 -264 -166q6 -23 35 -23q74 117 174 119q102 0 108 -109 q-4 -79 -63 -114q-43 -29 -109 -58q-67 -28 -108 -47q-8 -39 26 -55q25 25 62 43q37 16 86 16q92 -2 133 -55q37 -55 37 -127q-4 -123 -84 -188q-80 -66 -150 -66q-45 0 -65 37q-8 21 -25 37q-18 16 -43 16q-65 -2 -67 -65zM354 -29q4 -51 56 -53q444 688 901 1374 q-25 47 -64 47q-440 -684 -893 -1368zM860 258q0 -20 19 -20h317q27 0 35 -5q4 -8 4 -32v-25q0 -80 -10 -102q-13 -25 -74 -31l-37 -4q-6 -10 -4 -23q0 -12 8 -20q55 4 182 4q121 0 177 -4q10 8 10 20q0 13 -6 23l-37 4q-58 4 -70 29q-12 22 -10 104v29q0 20 8 28q4 5 31 5 h67q13 10 13 30q0 21 -13 29h-75q-19 0 -25 6t-6 23v235q0 19 -2 31q-2 8 -21 8q-55 -2 -94 -23q-14 -10 -12 -24v-223q0 -21 -4 -27q-8 -6 -33 -6h-184q-64 -4 -37 25l422 540q4 6 4 12q-2 11 -45 11q-27 0 -43 -25l-436 -561q-21 -23 -19 -41z" />
<glyph unicode="&#xbf;" horiz-adv-x="657" d="M92 -127q2 -168 115 -289q108 -125 237 -129q41 2 62 25q20 22 20 53q-2 41 -26 64q-23 22 -41 22q-80 0 -137 14q-58 13 -101 52q-24 28 -33 61q-12 33 -12 64q-2 81 113 149l100 53q47 23 80 56q29 32 31 92q-2 49 -25 108q-27 58 -49 94q-10 11 -23 7q-12 -4 -20 -17 q18 -65 20 -119q0 -53 -71 -90l-162 -86q-23 -10 -49 -53q-29 -45 -29 -131zM287 686q0 -51 37 -80q32 -33 77 -33q54 0 84 33q31 31 31 80q0 51 -31 86q-30 35 -84 35q-49 0 -82 -33q-32 -35 -32 -88z" />
<glyph unicode="&#xc0;" horiz-adv-x="1276" d="M-51 20q0 -18 10 -26q90 6 197 6q139 -2 213 -6q14 8 16 26q0 17 -12 25l-68 6q-35 2 -47 15q-12 8 -12 26q0 33 45 170l71 215q11 33 27 43q14 6 51 6h310q45 0 61 -6q14 -12 22 -45l91 -278q26 -74 26 -109q-2 -31 -71 -37l-60 -6q-8 -8 -8 -25q0 -18 12 -26 q88 6 236 6q131 0 248 -6q10 8 10 26q2 17 -10 25l-56 6q-61 6 -96 47q-35 43 -78 170l-280 824q-23 67 -45 139q-25 67 -45 135q-9 18 -31 18q-17 -20 -41 -43q-29 -22 -66 -34q8 -41 -35 -146l-208 -553q-127 -329 -181 -456q-22 -54 -53 -74q-31 -25 -69 -27l-68 -6 q-8 -8 -6 -25zM274 1612q13 -19 54 -35l370 -162q25 8 19 37l-320 244q-32 26 -55 26q-25 -2 -51 -47q-27 -43 -17 -63zM424 616q-8 9 4 41l129 357q18 47 33 82q12 32 16 39h4q10 -19 23 -54q12 -37 24 -76l111 -333q16 -39 8 -52q-8 -14 -53 -12h-252q-41 0 -47 8z" />
<glyph unicode="&#xc1;" horiz-adv-x="1276" d="M-51 20q0 -18 10 -26q90 6 197 6q139 -2 213 -6q14 8 16 26q0 17 -12 25l-68 6q-35 2 -47 15q-12 8 -12 26q0 33 45 170l71 215q11 33 27 43q14 6 51 6h310q45 0 61 -6q14 -12 22 -45l91 -278q26 -74 26 -109q-2 -31 -71 -37l-60 -6q-8 -8 -8 -25q0 -18 12 -26 q88 6 236 6q131 0 248 -6q10 8 10 26q2 17 -10 25l-56 6q-61 6 -96 47q-35 43 -78 170l-280 824q-23 67 -45 139q-25 67 -45 135q-9 18 -31 18q-17 -20 -41 -43q-29 -22 -66 -34q8 -41 -35 -146l-208 -553q-127 -329 -181 -456q-22 -54 -53 -74q-31 -25 -69 -27l-68 -6 q-8 -8 -6 -25zM424 616q-8 9 4 41l129 357q18 47 33 82q12 32 16 39h4q10 -19 23 -54q12 -37 24 -76l111 -333q16 -39 8 -52q-8 -14 -53 -12h-252q-41 0 -47 8zM586 1452q-6 -29 20 -37l369 162q43 16 53 35q10 20 -16 63q-11 23 -23 35q-16 12 -29 12q-20 0 -55 -26z" />
<glyph unicode="&#xc2;" horiz-adv-x="1276" d="M-51 20q0 -18 10 -26q90 6 197 6q139 -2 213 -6q14 8 16 26q0 17 -12 25l-68 6q-35 2 -47 15q-12 8 -12 26q0 33 45 170l71 215q11 33 27 43q14 6 51 6h310q45 0 61 -6q14 -12 22 -45l91 -278q26 -74 26 -109q-2 -31 -71 -37l-60 -6q-8 -8 -8 -25q0 -18 12 -26 q88 6 236 6q131 0 248 -6q10 8 10 26q2 17 -10 25l-56 6q-61 6 -96 47q-35 43 -78 170l-280 824q-23 67 -45 139q-25 67 -45 135q-9 18 -31 18q-17 -20 -41 -43q-29 -22 -66 -34q8 -41 -35 -146l-208 -553q-127 -329 -181 -456q-22 -54 -53 -74q-31 -25 -69 -27l-68 -6 q-8 -8 -6 -25zM356 1444q0 -29 29 -31l242 139q20 13 34 13q13 0 33 -13l246 -139q22 4 25 31l-261 250q-43 41 -88 0zM424 616q-8 9 4 41l129 357q18 47 33 82q12 32 16 39h4q10 -19 23 -54q12 -37 24 -76l111 -333q16 -39 8 -52q-8 -14 -53 -12h-252q-41 0 -47 8z" />
<glyph unicode="&#xc3;" horiz-adv-x="1276" d="M-51 20q0 -18 10 -26q90 6 197 6q139 -2 213 -6q14 8 16 26q0 17 -12 25l-68 6q-35 2 -47 15q-12 8 -12 26q0 33 45 170l71 215q11 33 27 43q14 6 51 6h310q45 0 61 -6q14 -12 22 -45l91 -278q26 -74 26 -109q-2 -31 -71 -37l-60 -6q-8 -8 -8 -25q0 -18 12 -26 q88 6 236 6q131 0 248 -6q10 8 10 26q2 17 -10 25l-56 6q-61 6 -96 47q-35 43 -78 170l-280 824q-23 67 -45 139q-25 67 -45 135q-9 18 -31 18q-17 -20 -41 -43q-29 -22 -66 -34q8 -41 -35 -146l-208 -553q-127 -329 -181 -456q-22 -54 -53 -74q-31 -25 -69 -27l-68 -6 q-8 -8 -6 -25zM352 1413q13 -20 31 -10q25 47 57 78q39 39 123 39h219q66 -3 103 36q22 27 47 72q24 41 35 80q-15 20 -35 8q-15 -22 -47 -59q-19 -19 -49 -25q-31 -8 -66 -8h-223q-37 0 -64 -6q-28 -8 -53 -35q-25 -29 -47 -82q-23 -55 -31 -88zM424 616q-8 9 4 41l129 357 q18 47 33 82q12 32 16 39h4q10 -19 23 -54q12 -37 24 -76l111 -333q16 -39 8 -52q-8 -14 -53 -12h-252q-41 0 -47 8z" />
<glyph unicode="&#xc4;" horiz-adv-x="1276" d="M-51 20q0 -18 10 -26q90 6 197 6q139 -2 213 -6q14 8 16 26q0 17 -12 25l-68 6q-35 2 -47 15q-12 8 -12 26q0 33 45 170l71 215q11 33 27 43q14 6 51 6h310q45 0 61 -6q14 -12 22 -45l91 -278q26 -74 26 -109q-2 -31 -71 -37l-60 -6q-8 -8 -8 -25q0 -18 12 -26 q88 6 236 6q131 0 248 -6q10 8 10 26q2 17 -10 25l-56 6q-61 6 -96 47q-35 43 -78 170l-280 824q-23 67 -45 139q-25 67 -45 135q-9 18 -31 18q-17 -20 -41 -43q-29 -22 -66 -34q8 -41 -35 -146l-208 -553q-127 -329 -181 -456q-22 -54 -53 -74q-31 -25 -69 -27l-68 -6 q-8 -8 -6 -25zM356 1548q0 -49 31 -74q29 -26 72 -26q47 0 73 31q27 28 27 75q0 43 -27 72q-26 29 -73 31q-47 -2 -76 -31q-29 -31 -27 -78zM424 616q-8 9 4 41l129 357q18 47 33 82q12 32 16 39h4q10 -19 23 -54q12 -37 24 -76l111 -333q16 -39 8 -52q-8 -14 -53 -12h-252 q-41 0 -47 8zM760 1548q0 -49 30 -74q29 -26 74 -26q47 0 74 31q24 28 24 75q0 43 -24 72q-27 29 -74 31q-47 -2 -76 -31q-28 -31 -28 -78z" />
<glyph unicode="&#xc5;" horiz-adv-x="1276" d="M-51 20q0 -18 10 -26q90 6 197 6q139 -2 213 -6q14 8 16 26q0 17 -12 25l-68 6q-35 2 -47 15q-12 8 -12 26q0 33 45 170l71 215q11 33 27 43q14 6 51 6h310q45 0 61 -6q14 -12 22 -45l91 -278q26 -74 26 -109q-2 -31 -71 -37l-60 -6q-8 -8 -8 -25q0 -18 12 -26 q88 6 236 6q131 0 248 -6q10 8 10 26q2 17 -10 25l-56 6q-61 6 -96 47q-35 43 -78 170l-280 824q-43 124 -80 235q65 23 104 74q37 47 37 110q-2 80 -55 138q-56 55 -150 57q-90 -2 -145 -57q-60 -58 -60 -138q0 -63 41 -114q39 -52 105 -72q-23 -76 -60 -164l-208 -553 q-127 -329 -181 -456q-22 -54 -53 -74q-31 -25 -69 -27l-68 -6q-8 -8 -6 -25zM424 616q-8 9 4 41l129 357q18 47 33 82q12 32 16 39h4q10 -19 23 -54q12 -37 24 -76l111 -333q16 -39 8 -52q-8 -14 -53 -12h-252q-41 0 -47 8zM545 1511q0 58 32 92q29 35 76 35q49 0 80 -35 q29 -34 29 -92q0 -55 -29 -90q-31 -37 -80 -37q-47 0 -76 37q-32 35 -32 90z" />
<glyph unicode="&#xc6;" horiz-adv-x="1741" d="M-98 20q0 -18 12 -26q106 6 211 6q104 0 225 -6q10 8 12 24q0 17 -10 27l-110 16q-70 2 -31 82q74 185 207 434q33 62 53 78q20 15 80 13h168q65 0 80 -7q10 -10 10 -53v-301q2 -155 -19 -203q-22 -49 -106 -53l-70 -6q-8 -10 -6 -27q0 -16 10 -24q166 6 273 6h188 q139 0 275 -2q137 0 274 -4q55 129 92 285q-6 14 -22 20q-17 4 -29 -6q-84 -164 -145 -199q-31 -16 -86 -22q-60 -9 -174 -9q-132 0 -183 17q-51 12 -67 31q-39 49 -37 213v288q-2 39 12 49q10 7 55 7h119q117 0 158 -11q31 -6 45 -26q14 -23 18 -51l19 -80q12 -9 28 -9 q17 0 25 11q-6 78 -8 196q4 125 8 207q-8 12 -25 12q-16 0 -28 -10l-17 -84q-6 -37 -18 -51t-31 -20q-41 -13 -174 -13h-119q-45 -2 -55 8q-14 9 -12 50v409q-2 55 8 72q10 10 51 10h148q135 0 198 -10q78 -19 109 -70q29 -53 47 -127q10 -8 27 -6q16 4 24 12q-6 74 -14 158 q-8 82 -19 113q-20 -4 -96 -4q-80 -2 -180 -2h-537q-114 0 -239 6q-13 -4 -13 -23q-2 -16 7 -28l122 -19q46 -2 46 -24q-2 -31 -50 -117q-190 -375 -497 -944q-43 -84 -76 -113q-33 -31 -68 -35l-63 -10q-12 -8 -10 -25zM516 747q-10 9 6 37q25 54 84 170q29 60 64 127 q32 66 69 133q11 21 23 39q12 17 24 25h11q10 -8 12 -31v-43v-399q0 -45 -10 -55q-15 -11 -80 -11h-137q-58 0 -66 8z" />
<glyph unicode="&#xc7;" horiz-adv-x="1425" d="M90 668q2 -197 86 -336q80 -142 205 -228q207 -131 461 -135l-101 -149v-15q58 -22 97 -59q34 -37 36 -82q0 -37 -16 -51q-18 -16 -41 -16q-20 2 -49 32q-31 31 -64 31q-24 0 -36 -18q-17 -19 -17 -39q2 -70 123 -74q88 2 156 55q65 51 67 133q-4 95 -98 154 q-39 23 -20 47l36 51q99 4 183 21q84 14 116 24q35 15 72 21q27 35 57 117q31 79 41 163q-6 13 -22 15q-17 4 -31 -6q-16 -43 -47 -95q-33 -53 -84 -96q-49 -43 -123 -72q-74 -30 -174 -30q-258 0 -428 174q-176 170 -180 493q4 320 174 471q164 152 405 152q113 0 189 -25 q78 -28 123 -71q49 -43 75 -97q25 -53 33 -106q15 -8 31 -6q16 0 25 10q-25 209 -29 301q-25 -2 -57 8q-170 47 -363 49q-324 0 -553 -174q-252 -190 -258 -542z" />
<glyph unicode="&#xc8;" horiz-adv-x="1196" d="M61 18q0 -16 11 -24q164 6 278 6h184q138 0 275 -2q135 0 274 -4q25 49 54 137q26 90 38 148q-6 14 -22 20q-16 4 -29 -6q-84 -164 -145 -199q-31 -16 -86 -22q-60 -9 -176 -9q-131 0 -180 17q-52 12 -68 31q-41 51 -39 213v288q-2 39 12 49q11 7 56 7h118q117 0 158 -11 q31 -6 45 -26q14 -23 19 -51l18 -80q12 -9 29 -9q16 0 24 11q-6 78 -8 196q4 125 8 207q-8 12 -24 12q-17 0 -29 -10l-16 -84q-7 -37 -19 -51t-31 -20q-40 -13 -174 -13h-118q-45 -2 -56 8q-14 9 -12 50v409q-2 55 8 72q10 10 53 10h148q135 0 199 -12q77 -19 108 -70 q29 -49 47 -125q10 -8 27 -6q16 0 24 10q-6 74 -14 158q-8 86 -18 115q-21 -4 -97 -4q-79 -2 -180 -2h-385q-61 0 -119 2q-57 0 -122 4q-11 -4 -11 -23q-2 -20 6 -28l33 -5q88 -4 109 -53q18 -49 16 -205v-737q2 -155 -18 -203q-23 -49 -109 -53l-67 -6q-9 -10 -7 -27z M250 1612q12 -19 53 -35l371 -162q24 8 18 37l-319 244q-33 26 -56 26q-24 -2 -51 -47q-26 -43 -16 -63z" />
<glyph unicode="&#xc9;" horiz-adv-x="1196" d="M61 18q0 -16 11 -24q164 6 278 6h184q138 0 275 -2q135 0 274 -4q25 49 54 137q26 90 38 148q-6 14 -22 20q-16 4 -29 -6q-84 -164 -145 -199q-31 -16 -86 -22q-60 -9 -176 -9q-131 0 -180 17q-52 12 -68 31q-41 51 -39 213v288q-2 39 12 49q11 7 56 7h118q117 0 158 -11 q31 -6 45 -26q14 -23 19 -51l18 -80q12 -9 29 -9q16 0 24 11q-6 78 -8 196q4 125 8 207q-8 12 -24 12q-17 0 -29 -10l-16 -84q-7 -37 -19 -51t-31 -20q-40 -13 -174 -13h-118q-45 -2 -56 8q-14 9 -12 50v409q-2 55 8 72q10 10 53 10h148q135 0 199 -12q77 -19 108 -70 q29 -49 47 -125q10 -8 27 -6q16 0 24 10q-6 74 -14 158q-8 86 -18 115q-21 -4 -97 -4q-79 -2 -180 -2h-385q-61 0 -119 2q-57 0 -122 4q-11 -4 -11 -23q-2 -20 6 -28l33 -5q88 -4 109 -53q18 -49 16 -205v-737q2 -155 -18 -203q-23 -49 -109 -53l-67 -6q-9 -10 -7 -27z M545 1452q-6 -29 20 -37l369 162q43 16 53 35q10 20 -16 63q-11 23 -23 35q-16 12 -29 12q-20 0 -55 -26z" />
<glyph unicode="&#xca;" horiz-adv-x="1196" d="M61 18q0 -16 11 -24q164 6 278 6h184q138 0 275 -2q135 0 274 -4q25 49 54 137q26 90 38 148q-6 14 -22 20q-16 4 -29 -6q-84 -164 -145 -199q-31 -16 -86 -22q-60 -9 -176 -9q-131 0 -180 17q-52 12 -68 31q-41 51 -39 213v288q-2 39 12 49q11 7 56 7h118q117 0 158 -11 q31 -6 45 -26q14 -23 19 -51l18 -80q12 -9 29 -9q16 0 24 11q-6 78 -8 196q4 125 8 207q-8 12 -24 12q-17 0 -29 -10l-16 -84q-7 -37 -19 -51t-31 -20q-40 -13 -174 -13h-118q-45 -2 -56 8q-14 9 -12 50v409q-2 55 8 72q10 10 53 10h148q135 0 199 -12q77 -19 108 -70 q29 -49 47 -125q10 -8 27 -6q16 0 24 10q-6 74 -14 158q-8 86 -18 115q-21 -4 -97 -4q-79 -2 -180 -2h-385q-61 0 -119 2q-57 0 -122 4q-11 -4 -11 -23q-2 -20 6 -28l33 -5q88 -4 109 -53q18 -49 16 -205v-737q2 -155 -18 -203q-23 -49 -109 -53l-67 -6q-9 -10 -7 -27z M326 1444q0 -29 28 -31l242 139q20 13 35 13q12 0 33 -13l245 -139q23 4 25 31l-260 250q-43 41 -88 0z" />
<glyph unicode="&#xcb;" horiz-adv-x="1196" d="M61 18q0 -16 11 -24q164 6 278 6h184q138 0 275 -2q135 0 274 -4q25 49 54 137q26 90 38 148q-6 14 -22 20q-16 4 -29 -6q-84 -164 -145 -199q-31 -16 -86 -22q-60 -9 -176 -9q-131 0 -180 17q-52 12 -68 31q-41 51 -39 213v288q-2 39 12 49q11 7 56 7h118q117 0 158 -11 q31 -6 45 -26q14 -23 19 -51l18 -80q12 -9 29 -9q16 0 24 11q-6 78 -8 196q4 125 8 207q-8 12 -24 12q-17 0 -29 -10l-16 -84q-7 -37 -19 -51t-31 -20q-40 -13 -174 -13h-118q-45 -2 -56 8q-14 9 -12 50v409q-2 55 8 72q10 10 53 10h148q135 0 199 -12q77 -19 108 -70 q29 -49 47 -125q10 -8 27 -6q16 0 24 10q-6 74 -14 158q-8 86 -18 115q-21 -4 -97 -4q-79 -2 -180 -2h-385q-61 0 -119 2q-57 0 -122 4q-11 -4 -11 -23q-2 -20 6 -28l33 -5q88 -4 109 -53q18 -49 16 -205v-737q2 -155 -18 -203q-23 -49 -109 -53l-67 -6q-9 -10 -7 -27z M315 1548q0 -49 31 -74q29 -26 72 -26q47 0 73 31q27 28 27 75q0 43 -27 72q-26 29 -73 31q-47 -2 -76 -31q-29 -31 -27 -78zM719 1548q0 -49 31 -74q28 -26 73 -26q47 0 74 31q25 28 25 75q0 43 -25 72q-27 29 -74 31q-47 -2 -76 -31q-28 -31 -28 -78z" />
<glyph unicode="&#xcc;" horiz-adv-x="692" d="M-23 1612q13 -19 54 -35l370 -162q25 8 19 37l-320 244q-32 26 -55 26q-25 -2 -51 -47q-27 -43 -17 -63zM80 18q0 -16 10 -24q141 6 258 6q113 0 254 -6q10 8 12 26q0 17 -8 25l-51 6q-86 6 -107 55q-20 48 -18 205v729q-2 158 18 211q21 51 107 51l51 5q8 8 8 28 q-2 19 -12 23q-141 -6 -254 -6q-117 0 -258 6q-10 -4 -10 -23q-2 -20 6 -28l51 -5q88 0 109 -51q18 -53 16 -211v-729q2 -157 -16 -205q-21 -49 -109 -55l-51 -6q-8 -10 -6 -27z" />
<glyph unicode="&#xcd;" horiz-adv-x="692" d="M80 18q0 -16 10 -24q141 6 258 6q113 0 254 -6q10 8 12 26q0 17 -8 25l-51 6q-86 6 -107 55q-20 48 -18 205v729q-2 158 18 211q21 51 107 51l51 5q8 8 8 28q-2 19 -12 23q-141 -6 -254 -6q-117 0 -258 6q-10 -4 -10 -23q-2 -20 6 -28l51 -5q88 0 109 -51q18 -53 16 -211 v-729q2 -157 -16 -205q-21 -49 -109 -55l-51 -6q-8 -10 -6 -27zM283 1452q-7 -29 20 -37l369 162q43 16 53 35q10 20 -16 63q-11 23 -23 35q-16 12 -29 12q-20 0 -55 -26z" />
<glyph unicode="&#xce;" horiz-adv-x="692" d="M43 1444q0 -29 29 -31l241 139q21 13 35 13q12 0 33 -13l246 -139q22 4 24 31l-260 250q-43 41 -88 0zM80 18q0 -16 10 -24q141 6 258 6q113 0 254 -6q10 8 12 26q0 17 -8 25l-51 6q-86 6 -107 55q-20 48 -18 205v729q-2 158 18 211q21 51 107 51l51 5q8 8 8 28 q-2 19 -12 23q-141 -6 -254 -6q-117 0 -258 6q-10 -4 -10 -23q-2 -20 6 -28l51 -5q88 0 109 -51q18 -53 16 -211v-729q2 -157 -16 -205q-21 -49 -109 -55l-51 -6q-8 -10 -6 -27z" />
<glyph unicode="&#xcf;" horiz-adv-x="692" d="M43 1548q0 -49 31 -74q28 -26 71 -26q47 0 74 31q27 28 27 75q0 43 -27 72t-74 31q-47 -2 -75 -31q-29 -31 -27 -78zM80 18q0 -16 10 -24q141 6 258 6q113 0 254 -6q10 8 12 26q0 17 -8 25l-51 6q-86 6 -107 55q-20 48 -18 205v729q-2 158 18 211q21 51 107 51l51 5 q8 8 8 28q-2 19 -12 23q-141 -6 -254 -6q-117 0 -258 6q-10 -4 -10 -23q-2 -20 6 -28l51 -5q88 0 109 -51q18 -53 16 -211v-729q2 -157 -16 -205q-21 -49 -109 -55l-51 -6q-8 -10 -6 -27zM446 1548q0 -49 31 -74q29 -26 74 -26q47 0 74 31q24 28 24 75q0 43 -24 72 q-27 29 -74 31q-47 -2 -76 -31q-29 -31 -29 -78z" />
<glyph unicode="&#xd0;" horiz-adv-x="1610" d="M66 704q0 -22 12 -36h184v-361q2 -153 -16 -201q-21 -49 -107 -55l-47 -6q-8 -10 -6 -27q0 -16 10 -24q135 6 256 6q56 0 146 -8q88 -6 188 -8q248 -2 459 98q356 205 358 614q0 205 -102 365q-105 160 -314 237q-192 64 -442 60q-260 -2 -522 -13q-14 -8 -14 -24 q0 -17 12 -25l35 -4q73 -4 92 -61q16 -60 14 -197v-295h-184q-12 -10 -12 -35zM430 354v314h295q14 14 14 36q0 25 -14 35h-295v371q-2 137 21 156q12 10 63 20q25 4 61 6q35 2 78 2q203 -2 330 -61q125 -64 195 -158q69 -94 96 -199q24 -102 24 -188q0 -289 -137 -463 q-141 -176 -438 -178q-189 -4 -252 84q-45 68 -41 223z" />
<glyph unicode="&#xd1;" horiz-adv-x="1603" d="M43 1335q0 -16 8 -28l35 -5q80 -8 127 -49q33 -32 41 -67q4 -37 4 -80v-592v-219q-2 -64 -8 -117q-6 -57 -19 -86q-16 -35 -90 -41l-55 -6q-8 -10 -6 -25q0 -16 10 -26q96 6 213 6q109 0 240 -6q22 20 4 51l-64 6q-80 6 -104 39q-12 27 -19 80q-6 55 -10 121 q-8 141 -8 223v446q0 95 10 134h4q111 -125 238 -277l475 -541q133 -147 190 -215q56 -69 72 -94q33 2 39 23q-4 53 -4 178q-2 123 -2 180v490q0 81 4 219q2 65 8 121q6 53 19 81q14 27 114 43l29 5q10 10 10 26q-2 17 -14 25q-92 -6 -211 -6q-109 0 -242 6q-12 -4 -12 -23 q0 -16 8 -28l35 -5q61 -6 90 -16q29 -8 37 -25q16 -22 25 -77q10 -54 12 -121q4 -139 4 -225v-439v-53q-2 -24 -8 -33h-4q-138 140 -338 371l-199 223q-59 70 -182 215q-58 70 -103 133q-22 31 -38 60q-19 24 -27 43q-43 -6 -94 -6q-78 -2 -232 6q-12 -6 -12 -23zM537 1413 q12 -20 30 -10q25 47 58 78q39 39 122 39h220q65 -3 102 36q23 27 47 72q25 41 35 80q-14 20 -35 8q-14 -22 -47 -59q-18 -19 -49 -25q-31 -8 -66 -8h-223q-37 0 -63 -6q-29 -8 -54 -35q-24 -29 -47 -82q-22 -55 -30 -88z" />
<glyph unicode="&#xd2;" horiz-adv-x="1628" d="M94 661q2 -284 195 -483q190 -207 534 -211q305 4 506 203q201 197 205 512q0 280 -176 487q-178 211 -535 215q-321 -4 -522 -206q-205 -201 -207 -517zM299 727q0 168 49 285q45 116 117 182q76 70 160 100q43 15 84 21t79 6q293 -6 418 -223q125 -211 123 -480 q-4 -301 -145 -444q-142 -143 -334 -143q-297 6 -426 235q-127 219 -125 461zM457 1612q12 -19 53 -35l371 -162q24 8 18 37l-319 244q-33 26 -56 26q-24 -2 -51 -47q-27 -43 -16 -63z" />
<glyph unicode="&#xd3;" horiz-adv-x="1628" d="M94 661q2 -284 195 -483q190 -207 534 -211q305 4 506 203q201 197 205 512q0 280 -176 487q-178 211 -535 215q-321 -4 -522 -206q-205 -201 -207 -517zM299 727q0 168 49 285q45 116 117 182q76 70 160 100q43 15 84 21t79 6q293 -6 418 -223q125 -211 123 -480 q-4 -301 -145 -444q-142 -143 -334 -143q-297 6 -426 235q-127 219 -125 461zM721 1452q-6 -29 20 -37l369 162q43 16 53 35q10 20 -16 63q-10 23 -23 35q-16 12 -28 12q-21 0 -56 -26z" />
<glyph unicode="&#xd4;" horiz-adv-x="1628" d="M94 661q2 -284 195 -483q190 -207 534 -211q305 4 506 203q201 197 205 512q0 280 -176 487q-178 211 -535 215q-321 -4 -522 -206q-205 -201 -207 -517zM299 727q0 168 49 285q45 116 117 182q76 70 160 100q43 15 84 21t79 6q293 -6 418 -223q125 -211 123 -480 q-4 -301 -145 -444q-142 -143 -334 -143q-297 6 -426 235q-127 219 -125 461zM512 1444q0 -29 29 -31l241 139q21 13 35 13q12 0 33 -13l246 -139q22 4 24 31l-260 250q-43 41 -88 0z" />
<glyph unicode="&#xd5;" horiz-adv-x="1628" d="M94 661q2 -284 195 -483q190 -207 534 -211q305 4 506 203q201 197 205 512q0 280 -176 487q-178 211 -535 215q-321 -4 -522 -206q-205 -201 -207 -517zM299 727q0 168 49 285q45 116 117 182q76 70 160 100q43 15 84 21t79 6q293 -6 418 -223q125 -211 123 -480 q-4 -301 -145 -444q-142 -143 -334 -143q-297 6 -426 235q-127 219 -125 461zM508 1413q12 -20 31 -10q24 47 57 78q39 39 123 39h219q65 -3 102 36q23 27 47 72q25 41 35 80q-14 20 -35 8q-14 -22 -47 -59q-18 -19 -49 -25q-31 -8 -65 -8h-224q-36 0 -63 -6q-29 -8 -53 -35 q-25 -29 -47 -82q-23 -55 -31 -88z" />
<glyph unicode="&#xd6;" horiz-adv-x="1628" d="M94 661q2 -284 195 -483q190 -207 534 -211q305 4 506 203q201 197 205 512q0 280 -176 487q-178 211 -535 215q-321 -4 -522 -206q-205 -201 -207 -517zM299 727q0 168 49 285q45 116 117 182q76 70 160 100q43 15 84 21t79 6q293 -6 418 -223q125 -211 123 -480 q-4 -301 -145 -444q-142 -143 -334 -143q-297 6 -426 235q-127 219 -125 461zM512 1548q0 -49 31 -74q28 -26 71 -26q47 0 74 31q27 28 27 75q0 43 -27 72t-74 31q-47 -2 -75 -31q-29 -31 -27 -78zM915 1548q0 -49 31 -74q29 -26 74 -26q47 0 74 31q24 28 24 75q0 43 -24 72 q-27 29 -74 31q-47 -2 -76 -31q-29 -31 -29 -78z" />
<glyph unicode="&#xd7;" d="M133 102l76 -79l303 307l305 -307l76 79l-303 306l303 307l-76 78l-305 -308l-303 303l-76 -79l301 -301z" />
<glyph unicode="&#xd8;" horiz-adv-x="1628" d="M94 661q2 -323 242 -526l-133 -166q4 -22 20 -35q17 -16 39 -16l137 170q176 -119 424 -121q305 4 506 203q201 197 205 506q0 336 -234 549l113 143q0 18 -16 35q-19 16 -45 16l-117 -147q-168 110 -412 112q-321 -4 -522 -206q-205 -201 -207 -517zM299 727 q0 168 49 285q45 116 117 182q76 70 160 100q43 15 84 21t79 6q234 -4 363 -156l-719 -909q-70 106 -100 231q-33 121 -33 240zM481 192l719 908q131 -213 129 -482q-4 -301 -145 -444q-142 -143 -334 -143q-240 4 -369 161z" />
<glyph unicode="&#xd9;" horiz-adv-x="1528" d="M66 1335q-3 -18 6 -26l51 -5q86 0 106 -51q19 -51 17 -207v-483q-2 -356 159 -483q41 -31 86 -51q43 -23 93 -35q100 -27 204 -27q244 2 392 150q84 94 116 225q27 129 27 264v232q0 96 4 227q4 31 6 61q0 29 4 54q2 26 8 45q5 18 7 30q10 23 36 35q29 12 66 14l49 5 q10 10 10 26q-2 17 -14 23q-98 -6 -215 -6q-119 0 -233 6q-11 -6 -11 -21q-2 -16 6 -28l52 -5q80 -6 102 -43q27 -55 35 -186q4 -133 4 -237v-236q2 -237 -92 -387q-96 -156 -318 -158q-231 2 -323 152q-94 145 -92 395v442q-2 156 18 207q19 51 105 51l49 5q8 8 8 26 q-2 19 -12 23q-138 -6 -252 -6q-111 0 -254 6q-10 -4 -10 -23zM436 1612q12 -19 53 -35l371 -162q25 8 19 37l-320 244q-33 26 -55 26q-25 -2 -51 -47q-27 -43 -17 -63z" />
<glyph unicode="&#xda;" horiz-adv-x="1528" d="M66 1335q-3 -18 6 -26l51 -5q86 0 106 -51q19 -51 17 -207v-483q-2 -356 159 -483q41 -31 86 -51q43 -23 93 -35q100 -27 204 -27q244 2 392 150q84 94 116 225q27 129 27 264v232q0 96 4 227q4 31 6 61q0 29 4 54q2 26 8 45q5 18 7 30q10 23 36 35q29 12 66 14l49 5 q10 10 10 26q-2 17 -14 23q-98 -6 -215 -6q-119 0 -233 6q-11 -6 -11 -21q-2 -16 6 -28l52 -5q80 -6 102 -43q27 -55 35 -186q4 -133 4 -237v-236q2 -237 -92 -387q-96 -156 -318 -158q-231 2 -323 152q-94 145 -92 395v442q-2 156 18 207q19 51 105 51l49 5q8 8 8 26 q-2 19 -12 23q-138 -6 -252 -6q-111 0 -254 6q-10 -4 -10 -23zM721 1452q-6 -29 20 -37l369 162q43 16 53 35q10 20 -16 63q-10 23 -23 35q-16 12 -28 12q-21 0 -56 -26z" />
<glyph unicode="&#xdb;" horiz-adv-x="1528" d="M66 1335q-3 -18 6 -26l51 -5q86 0 106 -51q19 -51 17 -207v-483q-2 -356 159 -483q41 -31 86 -51q43 -23 93 -35q100 -27 204 -27q244 2 392 150q84 94 116 225q27 129 27 264v232q0 96 4 227q4 31 6 61q0 29 4 54q2 26 8 45q5 18 7 30q10 23 36 35q29 12 66 14l49 5 q10 10 10 26q-2 17 -14 23q-98 -6 -215 -6q-119 0 -233 6q-11 -6 -11 -21q-2 -16 6 -28l52 -5q80 -6 102 -43q27 -55 35 -186q4 -133 4 -237v-236q2 -237 -92 -387q-96 -156 -318 -158q-231 2 -323 152q-94 145 -92 395v442q-2 156 18 207q19 51 105 51l49 5q8 8 8 26 q-2 19 -12 23q-138 -6 -252 -6q-111 0 -254 6q-10 -4 -10 -23zM502 1444q0 -29 28 -31l242 139q21 13 35 13q12 0 33 -13l245 -139q23 4 25 31l-260 250q-43 41 -88 0z" />
<glyph unicode="&#xdc;" horiz-adv-x="1528" d="M66 1335q-3 -18 6 -26l51 -5q86 0 106 -51q19 -51 17 -207v-483q-2 -356 159 -483q41 -31 86 -51q43 -23 93 -35q100 -27 204 -27q244 2 392 150q84 94 116 225q27 129 27 264v232q0 96 4 227q4 31 6 61q0 29 4 54q2 26 8 45q5 18 7 30q10 23 36 35q29 12 66 14l49 5 q10 10 10 26q-2 17 -14 23q-98 -6 -215 -6q-119 0 -233 6q-11 -6 -11 -21q-2 -16 6 -28l52 -5q80 -6 102 -43q27 -55 35 -186q4 -133 4 -237v-236q2 -237 -92 -387q-96 -156 -318 -158q-231 2 -323 152q-94 145 -92 395v442q-2 156 18 207q19 51 105 51l49 5q8 8 8 26 q-2 19 -12 23q-138 -6 -252 -6q-111 0 -254 6q-10 -4 -10 -23zM481 1548q0 -49 31 -74q29 -26 72 -26q47 0 73 31q27 28 27 75q0 43 -27 72q-26 29 -73 31q-47 -2 -76 -31q-29 -31 -27 -78zM885 1548q0 -49 30 -74q29 -26 74 -26q47 0 74 31q24 28 24 75q0 43 -24 72 q-27 29 -74 31q-47 -2 -76 -31q-28 -31 -28 -78z" />
<glyph unicode="&#xdd;" horiz-adv-x="1175" d="M-12 1335q-2 -16 6 -28l57 -11q45 -2 80 -28q33 -29 82 -127l242 -471q45 -80 57 -127q8 -47 8 -127v-105q2 -157 -16 -207q-21 -49 -107 -53l-63 -6q-8 -10 -6 -27q0 -16 10 -24q151 6 268 6q107 0 279 -6q10 8 12 24q0 17 -8 27l-78 6q-80 2 -102 51q-23 52 -21 209 v107q-2 110 14 170q17 57 82 162l129 223q74 135 136 223q59 86 135 100l57 11q12 10 12 26q-4 17 -16 25q-100 -6 -191 -6q-90 0 -196 6q-12 -6 -12 -23q0 -16 8 -28l37 -5q39 -2 63 -12q23 -10 23 -20q-2 -23 -43 -105q-43 -82 -90 -166q-95 -180 -193 -346 q-119 219 -231 455q-11 22 -35 80q-8 28 -19 49q-10 22 -10 29q-2 12 19 20q16 8 67 16l27 5q10 12 10 28q-2 19 -16 23q-78 -6 -219 -6q-144 0 -238 6q-10 -6 -10 -23zM596 1452q-6 -29 20 -37l369 162q43 16 53 35q11 20 -16 63q-10 23 -23 35q-16 12 -28 12 q-21 0 -56 -26z" />
<glyph unicode="&#xde;" horiz-adv-x="1149" d="M82 1335q-2 -20 6 -28l45 -5q84 0 109 -47q22 -49 20 -211v-737q2 -153 -16 -201q-21 -49 -107 -55l-45 -6q-8 -10 -6 -27q0 -16 10 -24q133 6 252 6q107 0 275 -6q10 8 12 26q0 17 -8 25l-76 6q-86 4 -105 53q-20 48 -18 203v645q-2 47 18 62q23 10 99 10 q327 -6 327 -311q-2 -269 -299 -312q-6 -4 -6 -18q0 -16 8 -23q60 -2 142 13q82 12 157 47q66 31 125 106q58 74 60 195q-2 198 -135 284q-131 82 -330 82h-166q-2 119 23 164q24 43 116 51l33 5q6 10 6 26q0 17 -10 25q-125 -6 -248 -6q-117 0 -258 6q-10 -4 -10 -23z" />
<glyph unicode="&#xdf;" horiz-adv-x="1532" d="M76 246q0 -80 16 -133q14 -56 27 -78q22 -17 84 -37q59 -25 151 -27q156 2 244 72q88 68 90 188q-2 105 -53 168q-53 66 -113 92l-127 66q-61 33 -98 72q-39 37 -39 90q0 55 39 96t127 43q90 -2 135 -59q25 -25 37 -58q12 -30 18 -59q11 -8 31 -8q19 0 23 12 q0 141 -29 201q-51 10 -92 20q-45 10 -99 10q-319 -8 -321 -253q2 -84 55 -146q51 -61 127 -100l92 -47q88 -43 117 -92q27 -50 27 -101q0 -72 -45 -108q-47 -39 -127 -39q-49 0 -92 26q-43 23 -74 58q-66 73 -78 135q-10 14 -27 14q-18 -2 -26 -18zM842 246q0 -80 16 -133 q14 -56 27 -78q22 -17 84 -37q59 -25 151 -27q156 2 244 72q88 68 90 188q-2 105 -53 168q-54 66 -113 92l-127 66q-61 33 -98 72q-39 37 -39 90q0 55 39 96t127 43q90 -2 135 -59q25 -25 37 -58q12 -30 18 -59q10 -8 31 -8q18 0 22 12q0 141 -28 201q-51 10 -92 20 q-45 10 -99 10q-319 -8 -321 -253q2 -84 55 -146q51 -61 127 -100l92 -47q88 -43 117 -92q27 -50 27 -101q0 -72 -45 -108q-48 -39 -127 -39q-50 0 -93 26q-43 23 -73 58q-66 73 -78 135q-10 14 -27 14q-18 -2 -26 -18z" />
<glyph unicode="&#xe0;" horiz-adv-x="936" d="M-29 20q0 -18 13 -26q57 6 143 6t162 -6q16 4 18 24q0 19 -12 27l-55 10q-27 4 -33 21q-6 14 10 61l47 131q10 35 25 43q14 6 45 6h194q35 0 49 -6q11 -8 21 -43l49 -133q21 -45 19 -61q-7 -17 -46 -23l-40 -6q-13 -8 -11 -25q0 -18 15 -26q75 6 184 6q98 0 170 -6 q16 4 18 24q4 19 -12 27l-33 6q-53 10 -75 37q-23 25 -41 72l-185 489q-35 96 -57 166q-25 70 -31 86q-6 18 -33 10q-22 -47 -86 -78q-4 -51 -53 -172l-196 -471q-29 -71 -54 -96q-26 -28 -73 -39l-47 -10q-11 -8 -9 -25zM176 1282q0 -23 35 -61l264 -277q27 -2 33 25 l-186 346q-11 22 -21 35q-12 14 -25 14q-26 4 -63 -27q-37 -30 -37 -55zM317 393q-6 10 11 49l73 183q27 61 33 69h4q8 -8 31 -74l63 -174q19 -41 13 -53q-8 -10 -49 -10h-142q-32 0 -37 10z" />
<glyph unicode="&#xe1;" horiz-adv-x="936" d="M-29 20q0 -18 13 -26q57 6 143 6t162 -6q16 4 18 24q0 19 -12 27l-55 10q-27 4 -33 21q-6 14 10 61l47 131q10 35 25 43q14 6 45 6h194q35 0 49 -6q11 -8 21 -43l49 -133q21 -45 19 -61q-7 -17 -46 -23l-40 -6q-13 -8 -11 -25q0 -18 15 -26q75 6 184 6q98 0 170 -6 q16 4 18 24q4 19 -12 27l-33 6q-53 10 -75 37q-23 25 -41 72l-185 489q-35 96 -57 166q-25 70 -31 86q-6 18 -33 10q-22 -47 -86 -78q-4 -51 -53 -172l-196 -471q-29 -71 -54 -96q-26 -28 -73 -39l-47 -10q-11 -8 -9 -25zM317 393q-6 10 11 49l73 183q27 61 33 69h4 q8 -8 31 -74l63 -174q19 -41 13 -53q-8 -10 -49 -10h-142q-32 0 -37 10zM442 969q6 -27 33 -25l264 277q35 38 35 61q0 25 -37 55q-37 31 -63 27q-23 -6 -45 -49z" />
<glyph unicode="&#xe2;" horiz-adv-x="936" d="M-29 20q0 -18 13 -26q57 6 143 6t162 -6q16 4 18 24q0 19 -12 27l-55 10q-27 4 -33 21q-6 14 10 61l47 131q10 35 25 43q14 6 45 6h194q35 0 49 -6q11 -8 21 -43l49 -133q21 -45 19 -61q-7 -17 -46 -23l-40 -6q-13 -8 -11 -25q0 -18 15 -26q75 6 184 6q98 0 170 -6 q16 4 18 24q4 19 -12 27l-33 6q-53 10 -75 37q-23 25 -41 72l-185 489q-35 96 -57 166q-25 70 -31 86q-6 18 -33 10q-22 -47 -86 -78q-4 -51 -53 -172l-196 -471q-29 -71 -54 -96q-26 -28 -73 -39l-47 -10q-11 -8 -9 -25zM233 962q9 -22 33 -22l185 217q20 27 30 27 q8 0 29 -27l184 -217q25 0 33 22l-209 371q-37 60 -76 0zM317 393q-6 10 11 49l73 183q27 61 33 69h4q8 -8 31 -74l63 -174q19 -41 13 -53q-8 -10 -49 -10h-142q-32 0 -37 10z" />
<glyph unicode="&#xe3;" horiz-adv-x="936" d="M-29 20q0 -18 13 -26q57 6 143 6t162 -6q16 4 18 24q0 19 -12 27l-55 10q-27 4 -33 21q-6 14 10 61l47 131q10 35 25 43q14 6 45 6h194q35 0 49 -6q11 -8 21 -43l49 -133q21 -45 19 -61q-7 -17 -46 -23l-40 -6q-13 -8 -11 -25q0 -18 15 -26q75 6 184 6q98 0 170 -6 q16 4 18 24q4 19 -12 27l-33 6q-53 10 -75 37q-23 25 -41 72l-185 489q-35 96 -57 166q-25 70 -31 86q-6 18 -33 10q-22 -47 -86 -78q-4 -51 -53 -172l-196 -471q-29 -71 -54 -96q-26 -28 -73 -39l-47 -10q-11 -8 -9 -25zM166 967q12 -21 35 -11q32 62 69 90q39 27 107 27 h219q65 -2 104 37q25 27 47 72q23 41 33 79q-14 21 -37 9q-36 -54 -67 -72q-31 -20 -96 -20h-220q-36 0 -63 -7q-29 -8 -53 -34q-25 -29 -47 -82q-23 -56 -31 -88zM317 393q-6 10 11 49l73 183q27 61 33 69h4q8 -8 31 -74l63 -174q19 -41 13 -53q-8 -10 -49 -10h-142 q-32 0 -37 10z" />
<glyph unicode="&#xe4;" horiz-adv-x="936" d="M-29 20q0 -18 13 -26q57 6 143 6t162 -6q16 4 18 24q0 19 -12 27l-55 10q-27 4 -33 21q-6 14 10 61l47 131q10 35 25 43q14 6 45 6h194q35 0 49 -6q11 -8 21 -43l49 -133q21 -45 19 -61q-7 -17 -46 -23l-40 -6q-13 -8 -11 -25q0 -18 15 -26q75 6 184 6q98 0 170 -6 q16 4 18 24q4 19 -12 27l-33 6q-53 10 -75 37q-23 25 -41 72l-185 489q-35 96 -57 166q-25 70 -31 86q-6 18 -33 10q-22 -47 -86 -78q-4 -51 -53 -172l-196 -471q-29 -71 -54 -96q-26 -28 -73 -39l-47 -10q-11 -8 -9 -25zM188 1108q2 -94 97 -94q90 2 94 100q0 37 -25 66 q-24 26 -69 26q-43 0 -70 -26q-29 -29 -27 -72zM317 393q-6 10 11 49l73 183q27 61 33 69h4q8 -8 31 -74l63 -174q19 -41 13 -53q-8 -10 -49 -10h-142q-32 0 -37 10zM571 1108q4 -94 99 -94q90 2 92 100q0 37 -25 66q-24 26 -67 26t-70 -26q-29 -29 -29 -72z" />
<glyph unicode="&#xe5;" horiz-adv-x="936" d="M-29 20q0 -18 13 -26q57 6 143 6t162 -6q16 4 18 24q0 19 -12 27l-55 10q-27 4 -33 21q-6 14 10 61l47 131q10 35 25 43q14 6 45 6h194q35 0 49 -6q11 -8 21 -43l49 -133q21 -45 19 -61q-7 -17 -46 -23l-40 -6q-13 -8 -11 -25q0 -18 15 -26q75 6 184 6q98 0 170 -6 q16 4 18 24q4 19 -12 27l-33 6q-53 10 -75 37q-23 25 -41 72l-185 489q-35 96 -57 166q-25 70 -31 86q-6 18 -33 10q-22 -47 -86 -78q-4 -51 -53 -172l-196 -471q-29 -71 -54 -96q-26 -28 -73 -39l-47 -10q-11 -8 -9 -25zM270 1163q0 -78 60 -133q55 -59 145 -61 q94 2 150 61q53 55 55 133q-2 80 -55 137q-56 56 -150 58q-90 -2 -145 -58q-60 -57 -60 -137zM317 393q-6 10 11 49l73 183q27 61 33 69h4q8 -8 31 -74l63 -174q19 -41 13 -53q-8 -10 -49 -10h-142q-32 0 -37 10zM367 1163q0 58 32 92q29 35 76 35q49 0 80 -35 q29 -34 29 -92q0 -55 -29 -90q-31 -37 -80 -37q-47 0 -76 37q-32 35 -32 90z" />
<glyph unicode="&#xe6;" horiz-adv-x="1274" d="M-68 18q2 -16 15 -24q76 6 153 6q101 0 172 -6q15 8 17 26q0 17 -10 25l-82 14q-25 7 -27 17q-2 12 8 33q43 96 146 288q12 25 22 29q8 4 33 4h153q37 0 45 -6q7 -10 7 -45v-164q0 -100 -15 -129q-16 -29 -82 -35l-45 -6q-8 -8 -6 -25q0 -18 19 -26q116 6 200 6h176 q160 -2 349 -6q41 78 61 227q-4 17 -23 19q-16 2 -30 -11q-21 -61 -45 -94q-27 -33 -60 -51q-63 -27 -161 -25q-84 0 -121 9q-37 6 -51 20q-13 21 -17 61q-6 39 -6 87v147q-2 31 6 41q6 6 33 6h96q80 0 105 -14q22 -19 30 -64l11 -39q10 -8 26 -8q17 0 25 12q-4 80 -4 148 q0 63 4 143q-8 12 -25 17q-16 0 -26 -13l-11 -39q-8 -45 -30 -61q-25 -16 -105 -16h-96q-27 0 -33 8q-8 6 -6 33v227q-2 47 12 57q11 8 62 8h90q41 0 94 -6q53 -8 80 -43q18 -22 37 -98q12 -8 28 -8q17 0 25 12q-16 152 -23 209q-40 -6 -190 -6h-373q-121 0 -229 6 q-12 -6 -12 -23q0 -16 8 -28l86 -21q26 -4 29 -16q4 -12 -13 -39q-170 -326 -342 -621q-28 -51 -53 -67q-27 -17 -51 -23l-51 -12q-13 -10 -9 -27zM377 502q-2 6 6 18l139 252q33 61 41 61h12q9 -16 9 -55v-231q0 -33 -7 -41q-8 -10 -45 -10h-129q-24 0 -26 6z" />
<glyph unicode="&#xe7;" horiz-adv-x="1026" d="M78 430q0 -123 57 -213q53 -92 137 -151q150 -95 332 -95l-92 -141v-8q51 -21 86 -55q33 -35 33 -72q0 -35 -17 -49q-16 -15 -34 -15q-19 2 -43 31q-13 12 -25 23q-14 6 -31 6q-22 0 -35 -17q-12 -16 -12 -32q0 -62 109 -66q77 2 135 49q57 45 59 117q-4 82 -88 133 q-31 21 -14 45l37 51q88 2 143 19q57 16 94 24q45 72 68 222q-8 16 -25 16q-18 0 -28 -14q-7 -19 -25 -54q-20 -35 -57 -69q-33 -35 -86 -58q-54 -26 -127 -26q-150 0 -256 112q-111 111 -113 318q2 209 111 305q102 92 239 92q135 -2 201 -59q65 -62 84 -150q14 -12 31 -8 q16 0 22 12q-18 142 -18 226q-17 0 -97 20q-79 16 -184 18q-241 0 -399 -118q-168 -119 -172 -369z" />
<glyph unicode="&#xe8;" horiz-adv-x="917" d="M55 20q0 -18 13 -26q139 6 227 6h180q82 0 168 -2q86 0 180 -4q41 78 62 227q-4 17 -23 19q-16 2 -31 -11q-20 -61 -45 -94q-26 -33 -59 -51q-63 -27 -162 -25q-84 0 -121 9q-36 6 -51 20q-12 21 -16 61q-6 39 -6 87v147q-2 31 6 41q6 6 33 6h96q80 0 104 -14 q23 -19 31 -64l10 -39q10 -8 27 -8q16 0 24 12q-4 80 -4 148q0 63 4 143q-8 12 -24 17q-17 0 -27 -13l-10 -39q-8 -45 -31 -61q-24 -16 -104 -16h-96q-27 0 -33 8q-8 6 -6 33v227q-2 47 12 57q10 8 61 8h90q41 0 95 -6q53 -8 80 -43q18 -22 36 -98q13 -8 29 -8t25 12 q-17 152 -23 209q-41 -6 -190 -6h-291q-49 0 -98 2q-45 0 -93 4q-12 -8 -12 -25q0 -18 8 -26l29 -6q31 -5 49 -11q17 -8 25 -22q12 -29 12 -131v-459q0 -100 -14 -129q-17 -29 -82 -35l-56 -6q-8 -8 -8 -25zM192 1282q0 -23 35 -61l264 -277q27 -2 33 25l-186 346 q-10 22 -21 35q-12 14 -24 14q-27 4 -64 -27q-37 -30 -37 -55z" />
<glyph unicode="&#xe9;" horiz-adv-x="917" d="M55 20q0 -18 13 -26q139 6 227 6h180q82 0 168 -2q86 0 180 -4q41 78 62 227q-4 17 -23 19q-16 2 -31 -11q-20 -61 -45 -94q-26 -33 -59 -51q-63 -27 -162 -25q-84 0 -121 9q-36 6 -51 20q-12 21 -16 61q-6 39 -6 87v147q-2 31 6 41q6 6 33 6h96q80 0 104 -14 q23 -19 31 -64l10 -39q10 -8 27 -8q16 0 24 12q-4 80 -4 148q0 63 4 143q-8 12 -24 17q-17 0 -27 -13l-10 -39q-8 -45 -31 -61q-24 -16 -104 -16h-96q-27 0 -33 8q-8 6 -6 33v227q-2 47 12 57q10 8 61 8h90q41 0 95 -6q53 -8 80 -43q18 -22 36 -98q13 -8 29 -8t25 12 q-17 152 -23 209q-41 -6 -190 -6h-291q-49 0 -98 2q-45 0 -93 4q-12 -8 -12 -25q0 -18 8 -26l29 -6q31 -5 49 -11q17 -8 25 -22q12 -29 12 -131v-459q0 -100 -14 -129q-17 -29 -82 -35l-56 -6q-8 -8 -8 -25zM463 969q6 -27 33 -25l264 277q35 38 35 61q0 25 -37 55 q-37 31 -64 27q-22 -6 -45 -49z" />
<glyph unicode="&#xea;" horiz-adv-x="917" d="M55 20q0 -18 13 -26q139 6 227 6h180q82 0 168 -2q86 0 180 -4q41 78 62 227q-4 17 -23 19q-16 2 -31 -11q-20 -61 -45 -94q-26 -33 -59 -51q-63 -27 -162 -25q-84 0 -121 9q-36 6 -51 20q-12 21 -16 61q-6 39 -6 87v147q-2 31 6 41q6 6 33 6h96q80 0 104 -14 q23 -19 31 -64l10 -39q10 -8 27 -8q16 0 24 12q-4 80 -4 148q0 63 4 143q-8 12 -24 17q-17 0 -27 -13l-10 -39q-8 -45 -31 -61q-24 -16 -104 -16h-96q-27 0 -33 8q-8 6 -6 33v227q-2 47 12 57q10 8 61 8h90q41 0 95 -6q53 -8 80 -43q18 -22 36 -98q13 -8 29 -8t25 12 q-17 152 -23 209q-41 -6 -190 -6h-291q-49 0 -98 2q-45 0 -93 4q-12 -8 -12 -25q0 -18 8 -26l29 -6q31 -5 49 -11q17 -8 25 -22q12 -29 12 -131v-459q0 -100 -14 -129q-17 -29 -82 -35l-56 -6q-8 -8 -8 -25zM229 962q9 -22 33 -22l184 217q21 27 31 27q8 0 29 -27l184 -217 q25 0 33 22l-209 371q-37 60 -76 0z" />
<glyph unicode="&#xeb;" horiz-adv-x="917" d="M55 20q0 -18 13 -26q139 6 227 6h180q82 0 168 -2q86 0 180 -4q41 78 62 227q-4 17 -23 19q-16 2 -31 -11q-20 -61 -45 -94q-26 -33 -59 -51q-63 -27 -162 -25q-84 0 -121 9q-36 6 -51 20q-12 21 -16 61q-6 39 -6 87v147q-2 31 6 41q6 6 33 6h96q80 0 104 -14 q23 -19 31 -64l10 -39q10 -8 27 -8q16 0 24 12q-4 80 -4 148q0 63 4 143q-8 12 -24 17q-17 0 -27 -13l-10 -39q-8 -45 -31 -61q-24 -16 -104 -16h-96q-27 0 -33 8q-8 6 -6 33v227q-2 47 12 57q10 8 61 8h90q41 0 95 -6q53 -8 80 -43q18 -22 36 -98q13 -8 29 -8t25 12 q-17 152 -23 209q-41 -6 -190 -6h-291q-49 0 -98 2q-45 0 -93 4q-12 -8 -12 -25q0 -18 8 -26l29 -6q31 -5 49 -11q17 -8 25 -22q12 -29 12 -131v-459q0 -100 -14 -129q-17 -29 -82 -35l-56 -6q-8 -8 -8 -25zM192 1108q3 -94 97 -94q90 2 94 100q0 37 -25 66q-24 26 -69 26 q-43 0 -70 -26q-29 -29 -27 -72zM575 1108q5 -94 99 -94q90 2 92 100q0 37 -25 66q-24 26 -67 26t-70 -26q-29 -29 -29 -72z" />
<glyph unicode="&#xec;" horiz-adv-x="586" d="M8 1282q0 -23 35 -61l264 -277q27 -2 33 25l-186 346q-11 22 -21 35q-12 14 -24 14q-27 4 -64 -27q-37 -30 -37 -55zM72 20q0 -18 12 -26q115 6 209 6t209 -6q12 8 16 26q0 17 -12 25l-39 6q-64 8 -80 37q-18 27 -16 127v459q-2 102 16 131q16 26 80 33l39 6q12 12 12 28 q-4 19 -16 23q-115 -6 -209 -6t-209 6q-12 -4 -12 -23q0 -16 8 -28l39 -6q65 -7 82 -33q14 -29 14 -131v-459q0 -100 -14 -127q-17 -29 -82 -37l-39 -6q-8 -8 -8 -25z" />
<glyph unicode="&#xed;" horiz-adv-x="586" d="M72 20q0 -18 12 -26q115 6 209 6t209 -6q12 8 16 26q0 17 -12 25l-39 6q-64 8 -80 37q-18 27 -16 127v459q-2 102 16 131q16 26 80 33l39 6q12 12 12 28q-4 19 -16 23q-115 -6 -209 -6t-209 6q-12 -4 -12 -23q0 -16 8 -28l39 -6q65 -7 82 -33q14 -29 14 -131v-459 q0 -100 -14 -127q-17 -29 -82 -37l-39 -6q-8 -8 -8 -25zM256 969q6 -27 33 -25l264 277q35 38 35 61q0 25 -37 55q-37 31 -64 27q-22 -6 -45 -49z" />
<glyph unicode="&#xee;" horiz-adv-x="586" d="M47 962q8 -22 33 -22l184 217q21 27 31 27q8 0 29 -27l184 -217q24 0 33 22l-209 371q-37 60 -76 0zM72 20q0 -18 12 -26q115 6 209 6t209 -6q12 8 16 26q0 17 -12 25l-39 6q-64 8 -80 37q-18 27 -16 127v459q-2 102 16 131q16 26 80 33l39 6q12 12 12 28q-4 19 -16 23 q-115 -6 -209 -6t-209 6q-12 -4 -12 -23q0 -16 8 -28l39 -6q65 -7 82 -33q14 -29 14 -131v-459q0 -100 -14 -127q-17 -29 -82 -37l-39 -6q-8 -8 -8 -25z" />
<glyph unicode="&#xef;" horiz-adv-x="586" d="M6 1108q2 -94 96 -94q90 2 95 100q0 37 -25 66q-25 26 -70 26q-43 0 -69 -26q-29 -29 -27 -72zM72 20q0 -18 12 -26q115 6 209 6t209 -6q12 8 16 26q0 17 -12 25l-39 6q-64 8 -80 37q-18 27 -16 127v459q-2 102 16 131q16 26 80 33l39 6q12 12 12 28q-4 19 -16 23 q-115 -6 -209 -6t-209 6q-12 -4 -12 -23q0 -16 8 -28l39 -6q65 -7 82 -33q14 -29 14 -131v-459q0 -100 -14 -127q-17 -29 -82 -37l-39 -6q-8 -8 -8 -25zM389 1108q4 -94 98 -94q90 2 93 100q0 37 -25 66q-25 26 -68 26t-69 -26q-29 -29 -29 -72z" />
<glyph unicode="&#xf0;" horiz-adv-x="1186" d="M72 465q0 -21 10 -35h145v-215q0 -100 -14 -127q-16 -29 -82 -37l-39 -6q-8 -8 -8 -25q0 -18 12 -26q115 6 209 6q47 0 111 -4q65 -6 135 -6q162 -2 309 63q248 139 248 395q-2 295 -283 402q-141 45 -311 45q-235 0 -395 -12q-13 -4 -13 -23q-2 -20 11 -29l61 -8 q35 -2 43 -37q6 -36 6 -137v-153h-145q-10 -11 -10 -31zM383 246v184h190q13 14 13 35q0 20 -13 31h-190v237q-2 68 12 80q23 23 123 23q178 0 293 -97q113 -96 115 -286q0 -398 -367 -404q-57 0 -90 12q-37 13 -55 37q-33 49 -31 148z" />
<glyph unicode="&#xf1;" horiz-adv-x="1186" d="M57 872q-2 -16 9 -28l30 -6q41 -9 76 -29q31 -21 39 -47q4 -29 4 -80v-367q0 -147 -14 -202q-15 -58 -56 -62l-61 -6q-10 -8 -10 -25q0 -18 12 -26q94 6 170 6q80 0 182 -6q13 10 17 26q0 15 -13 25l-65 6q-53 2 -72 60q-16 55 -16 204v271q-2 88 8 86q41 -35 158 -158 l311 -332q174 -186 190 -209q31 -2 43 19v47v35q-4 16 -4 35q-2 81 -2 120v344q0 152 17 209q14 56 53 56l61 6q13 10 13 26q-2 17 -15 25q-90 -6 -170 -6q-78 0 -182 6q-12 -8 -12 -25q0 -16 8 -26l65 -6q58 -2 74 -58q14 -55 14 -207v-237q3 -74 -12 -82q-20 18 -84 86 q-63 65 -102 104l-193 199q-133 133 -200 252q-37 -6 -82 -6q-62 -2 -176 6q-13 -6 -13 -23zM297 967q12 -21 35 -11q33 62 69 90q39 27 107 27h219q66 -2 104 37q25 27 48 72q22 41 32 79q-14 21 -37 9q-36 -54 -67 -72q-31 -20 -96 -20h-220q-36 0 -63 -7q-29 -8 -53 -34 q-25 -29 -47 -82q-23 -56 -31 -88z" />
<glyph unicode="&#xf2;" horiz-adv-x="1159" d="M78 436q0 -196 135 -327q131 -134 371 -138q223 2 358 138q137 131 139 339q0 195 -123 330q-125 137 -374 139q-226 -2 -363 -137q-141 -133 -143 -344zM260 469q2 215 100 305q48 45 101 66q53 18 108 18q170 -4 252 -137q78 -129 78 -303q-2 -207 -92 -297 q-90 -92 -213 -90q-176 4 -254 141q-82 133 -80 297zM313 1282q0 -23 35 -61l264 -277q27 -2 33 25l-186 346q-11 22 -21 35q-12 14 -24 14q-27 4 -64 -27q-37 -30 -37 -55z" />
<glyph unicode="&#xf3;" horiz-adv-x="1159" d="M78 436q0 -196 135 -327q131 -134 371 -138q223 2 358 138q137 131 139 339q0 195 -123 330q-125 137 -374 139q-226 -2 -363 -137q-141 -133 -143 -344zM260 469q2 215 100 305q48 45 101 66q53 18 108 18q170 -4 252 -137q78 -129 78 -303q-2 -207 -92 -297 q-90 -92 -213 -90q-176 4 -254 141q-82 133 -80 297zM524 969q6 -27 33 -25l264 277q35 38 35 61q0 25 -37 55q-37 31 -63 27q-23 -6 -45 -49z" />
<glyph unicode="&#xf4;" horiz-adv-x="1159" d="M78 436q0 -196 135 -327q131 -134 371 -138q223 2 358 138q137 131 139 339q0 195 -123 330q-125 137 -374 139q-226 -2 -363 -137q-141 -133 -143 -344zM260 469q2 215 100 305q48 45 101 66q53 18 108 18q170 -4 252 -137q78 -129 78 -303q-2 -207 -92 -297 q-90 -92 -213 -90q-176 4 -254 141q-82 133 -80 297zM334 962q8 -22 33 -22l184 217q20 27 31 27q8 0 28 -27l185 -217q24 0 32 22l-209 371q-36 60 -75 0z" />
<glyph unicode="&#xf5;" horiz-adv-x="1159" d="M78 436q0 -196 135 -327q131 -134 371 -138q223 2 358 138q137 131 139 339q0 195 -123 330q-125 137 -374 139q-226 -2 -363 -137q-141 -133 -143 -344zM260 469q2 215 100 305q48 45 101 66q53 18 108 18q170 -4 252 -137q78 -129 78 -303q-2 -207 -92 -297 q-90 -92 -213 -90q-176 4 -254 141q-82 133 -80 297zM272 967q13 -21 35 -11q33 62 70 90q39 27 106 27h219q66 -2 105 37q24 27 47 72q22 41 33 79q-15 21 -37 9q-37 -54 -68 -72q-30 -20 -96 -20h-219q-37 0 -64 -7q-28 -8 -53 -34q-24 -29 -47 -82q-22 -56 -31 -88z" />
<glyph unicode="&#xf6;" horiz-adv-x="1159" d="M78 436q0 -196 135 -327q131 -134 371 -138q223 2 358 138q137 131 139 339q0 195 -123 330q-125 137 -374 139q-226 -2 -363 -137q-141 -133 -143 -344zM260 469q2 215 100 305q48 45 101 66q53 18 108 18q170 -4 252 -137q78 -129 78 -303q-2 -207 -92 -297 q-90 -92 -213 -90q-176 4 -254 141q-82 133 -80 297zM293 1108q2 -94 96 -94q90 2 94 100q0 37 -24 66q-25 26 -70 26q-43 0 -70 -26q-28 -29 -26 -72zM676 1108q4 -94 98 -94q90 2 92 100q0 37 -24 66q-25 26 -68 26t-70 -26q-28 -29 -28 -72z" />
<glyph unicode="&#xf7;" d="M119 371h788v100h-788v-100zM416 172q4 -88 92 -92q39 0 63 29q27 26 27 63q0 39 -27 64q-24 26 -63 26q-37 0 -64 -26q-28 -25 -28 -64zM416 672q4 -88 92 -92q39 0 63 28q27 27 27 64q0 39 -27 63q-24 27 -63 27q-37 0 -64 -27q-28 -24 -28 -63z" />
<glyph unicode="&#xf8;" horiz-adv-x="1159" d="M78 436q0 -231 186 -368l-72 -101q7 -39 54 -45l78 109q108 -60 260 -60q223 2 358 138q137 131 139 339q0 238 -182 377l66 92q-9 45 -54 45l-71 -100q-103 53 -256 55q-226 -2 -363 -137q-141 -133 -143 -344zM260 469q2 215 100 305q48 45 101 66q53 18 108 18 q129 -2 207 -84l-438 -604q-78 135 -78 299zM383 113l438 604q78 -129 78 -299q-2 -207 -92 -297q-90 -92 -213 -90q-131 2 -211 82z" />
<glyph unicode="&#xf9;" horiz-adv-x="1126" d="M63 872q0 -16 9 -28l28 -6q64 -9 82 -35q15 -27 15 -129v-328q-2 -199 88 -289q94 -86 290 -86q383 2 381 400v202q0 152 17 209q14 56 53 56l61 6q13 10 13 26q-2 17 -15 25q-90 -6 -170 -6q-82 0 -172 6q-12 -8 -12 -25q0 -16 8 -26l43 -6q66 -5 84 -60q17 -55 17 -205 v-190q0 -154 -62 -246q-63 -96 -203 -96q-145 0 -204 96q-64 92 -62 248v289q-2 102 17 131q16 26 79 33l39 6q13 12 13 28q-4 19 -17 23q-114 -6 -209 -6q-96 0 -198 6q-13 -4 -13 -23zM315 1282q0 -23 35 -61l264 -277q27 -2 33 25l-186 346q-10 22 -21 35q-12 14 -24 14 q-27 4 -64 -27q-37 -30 -37 -55z" />
<glyph unicode="&#xfa;" horiz-adv-x="1126" d="M63 872q0 -16 9 -28l28 -6q64 -9 82 -35q15 -27 15 -129v-328q-2 -199 88 -289q94 -86 290 -86q383 2 381 400v202q0 152 17 209q14 56 53 56l61 6q13 10 13 26q-2 17 -15 25q-90 -6 -170 -6q-82 0 -172 6q-12 -8 -12 -25q0 -16 8 -26l43 -6q66 -5 84 -60q17 -55 17 -205 v-190q0 -154 -62 -246q-63 -96 -203 -96q-145 0 -204 96q-64 92 -62 248v289q-2 102 17 131q16 26 79 33l39 6q13 12 13 28q-4 19 -17 23q-114 -6 -209 -6q-96 0 -198 6q-13 -4 -13 -23zM557 969q6 -27 33 -25l264 277q35 38 35 61q0 25 -37 55q-37 31 -64 27 q-22 -6 -45 -49z" />
<glyph unicode="&#xfb;" horiz-adv-x="1126" d="M63 872q0 -16 9 -28l28 -6q64 -9 82 -35q15 -27 15 -129v-328q-2 -199 88 -289q94 -86 290 -86q383 2 381 400v202q0 152 17 209q14 56 53 56l61 6q13 10 13 26q-2 17 -15 25q-90 -6 -170 -6q-82 0 -172 6q-12 -8 -12 -25q0 -16 8 -26l43 -6q66 -5 84 -60q17 -55 17 -205 v-190q0 -154 -62 -246q-63 -96 -203 -96q-145 0 -204 96q-64 92 -62 248v289q-2 102 17 131q16 26 79 33l39 6q13 12 13 28q-4 19 -17 23q-114 -6 -209 -6q-96 0 -198 6q-13 -4 -13 -23zM346 962q8 -22 33 -22l184 217q21 27 31 27q8 0 29 -27l184 -217q24 0 33 22l-209 371 q-37 60 -76 0z" />
<glyph unicode="&#xfc;" horiz-adv-x="1126" d="M63 872q0 -16 9 -28l28 -6q64 -9 82 -35q15 -27 15 -129v-328q-2 -199 88 -289q94 -86 290 -86q383 2 381 400v202q0 152 17 209q14 56 53 56l61 6q13 10 13 26q-2 17 -15 25q-90 -6 -170 -6q-82 0 -172 6q-12 -8 -12 -25q0 -16 8 -26l43 -6q66 -5 84 -60q17 -55 17 -205 v-190q0 -154 -62 -246q-63 -96 -203 -96q-145 0 -204 96q-64 92 -62 248v289q-2 102 17 131q16 26 79 33l39 6q13 12 13 28q-4 19 -17 23q-114 -6 -209 -6q-96 0 -198 6q-13 -4 -13 -23zM305 1108q2 -94 96 -94q90 2 95 100q0 37 -25 66q-25 26 -70 26q-43 0 -69 -26 q-29 -29 -27 -72zM688 1108q4 -94 98 -94q90 2 93 100q0 37 -25 66q-25 26 -68 26t-69 -26q-29 -29 -29 -72z" />
<glyph unicode="&#xfd;" horiz-adv-x="897" d="M-10 872q-2 -16 6 -28l53 -11q39 -4 64 -26q24 -23 53 -84l149 -277q39 -65 50 -96q8 -33 8 -78v-77q0 -86 -15 -111q-16 -27 -82 -33l-51 -6q-8 -8 -8 -25q0 -18 12 -26q131 6 222 6q90 0 221 -6q12 8 16 26q0 17 -12 25l-51 6q-64 6 -80 33q-19 25 -17 111v110 q-2 43 13 78q12 37 65 119l127 205q45 73 70 98q24 22 67 28l49 11q13 12 13 28q-4 19 -17 23q-82 -6 -145 -6q-68 0 -156 6q-14 -8 -14 -25q-2 -16 10 -26l43 -6q68 -2 15 -82l-82 -150q-52 -92 -99 -170q-45 80 -92 170l-76 146q-24 47 -18 63q4 18 37 23l29 6 q14 10 14 26q-4 17 -16 25q-91 -6 -175 -6q-98 0 -188 6q-12 -4 -12 -23zM463 969q6 -27 33 -25l264 277q35 38 35 61q0 25 -37 55q-37 31 -64 27q-22 -6 -45 -49z" />
<glyph unicode="&#xfe;" horiz-adv-x="926" d="M72 20q0 -18 12 -26q115 6 209 6t209 -6q12 8 16 26q0 17 -12 25l-39 6q-64 8 -80 37q-18 27 -16 127v346q-2 59 14 80q16 18 80 18q102 0 162 -49q57 -49 57 -147q0 -92 -51 -131q-53 -41 -142 -58q-12 -16 0 -36q43 0 111 12q68 8 121 33q47 20 86 69t41 135 q-2 93 -51 140q-47 49 -95 61q-77 25 -170 25h-163q-2 73 16 96q16 22 80 29l39 6q12 12 12 28q-4 19 -16 23q-115 -6 -209 -6t-209 6q-12 -4 -12 -23q0 -16 8 -28l39 -6q65 -7 82 -33q14 -29 14 -131v-459q0 -100 -14 -127q-17 -29 -82 -37l-39 -6q-8 -8 -8 -25z" />
<glyph unicode="&#xff;" horiz-adv-x="897" d="M-10 872q-2 -16 6 -28l53 -11q39 -4 64 -26q24 -23 53 -84l149 -277q39 -65 50 -96q8 -33 8 -78v-77q0 -86 -15 -111q-16 -27 -82 -33l-51 -6q-8 -8 -8 -25q0 -18 12 -26q131 6 222 6q90 0 221 -6q12 8 16 26q0 17 -12 25l-51 6q-64 6 -80 33q-19 25 -17 111v110 q-2 43 13 78q12 37 65 119l127 205q45 73 70 98q24 22 67 28l49 11q13 12 13 28q-4 19 -17 23q-82 -6 -145 -6q-68 0 -156 6q-14 -8 -14 -25q-2 -16 10 -26l43 -6q68 -2 15 -82l-82 -150q-52 -92 -99 -170q-45 80 -92 170l-76 146q-24 47 -18 63q4 18 37 23l29 6 q14 10 14 26q-4 17 -16 25q-91 -6 -175 -6q-98 0 -188 6q-12 -4 -12 -23zM180 1108q2 -94 96 -94q91 2 95 100q0 37 -25 66q-24 26 -70 26q-43 0 -69 -26q-29 -29 -27 -72zM563 1108q4 -94 98 -94q91 2 93 100q0 37 -25 66q-25 26 -68 26t-69 -26q-29 -29 -29 -72z" />
<glyph unicode="&#x152;" horiz-adv-x="2072" d="M94 666q2 -310 217 -492q211 -184 572 -186q100 2 196 6q101 6 207 6h125q139 0 274 -2q138 0 275 -4q55 129 92 285q-6 14 -23 20q-16 4 -28 -6q-84 -164 -146 -199q-30 -16 -86 -22q-57 -9 -174 -9q-131 0 -182 17q-27 6 -41 16q-14 6 -25 15q-40 49 -38 213v288 q-2 39 12 49q12 7 53 7h119q119 0 158 -11q30 -10 45 -28q14 -21 18 -49l21 -82q10 -9 26 -9q17 0 25 11q-6 77 -8 198q0 60 4 115t4 90q-8 12 -25 12q-16 0 -26 -10l-19 -82q-6 -39 -18 -53q-13 -14 -31 -20q-41 -11 -174 -11h-119q-41 -2 -53 8q-14 9 -12 48v411 q-2 55 8 72q10 10 51 10h147q138 0 199 -10q78 -19 109 -70q28 -53 47 -127q12 -8 28 -6q17 4 23 12q-6 74 -12 158q-9 82 -19 113q-59 -8 -276 -6h-346q-183 4 -367 6q-369 -2 -586 -195q-219 -190 -221 -497zM299 674q-2 256 133 436t459 184q123 0 196 -24q25 -6 41 -39 q13 -33 13 -109v-870q0 -70 -11 -109q-12 -41 -51 -61q-67 -31 -178 -31q-186 0 -305 70q-119 67 -184 164q-64 100 -88 204q-27 105 -25 185z" />
<glyph unicode="&#x153;" horiz-adv-x="1497" d="M78 430q0 -192 137 -313q135 -127 399 -129q70 2 138 6q69 6 147 6h156q82 0 168 -2q86 0 180 -4q41 78 61 227q-4 17 -22 19q-17 2 -31 -11q-21 -61 -45 -94q-27 -33 -59 -51q-64 -27 -162 -25q-84 0 -121 9q-37 6 -51 20q-13 21 -17 61q-6 39 -6 87v147q-2 31 6 41 q6 6 33 6h96q80 0 105 -14q22 -19 31 -64l10 -39q10 -8 26 -8q17 0 25 12q-4 80 -4 148q0 63 4 143q-8 12 -25 17q-16 0 -26 -13l-10 -39q-9 -45 -31 -61q-25 -16 -105 -16h-96q-27 0 -33 8q-8 6 -6 33v227q-2 47 12 57q11 8 62 8h90q41 0 94 -6q53 -8 80 -43q19 -22 37 -98 q12 -8 29 -8q16 0 24 12l-22 209q-41 -6 -191 -6h-262l-270 12q-279 -4 -418 -141q-137 -140 -137 -330zM260 442q0 166 88 281t281 119q73 0 125 -19q43 -16 41 -102v-574q-2 -67 -56 -86q-53 -20 -127 -18q-161 2 -256 119q-96 110 -96 280z" />
<glyph unicode="&#x178;" horiz-adv-x="1175" d="M-12 1335q-2 -16 6 -28l57 -11q45 -2 80 -28q33 -29 82 -127l242 -471q45 -80 57 -127q8 -47 8 -127v-105q2 -157 -16 -207q-21 -49 -107 -53l-63 -6q-8 -10 -6 -27q0 -16 10 -24q151 6 268 6q107 0 279 -6q10 8 12 24q0 17 -8 27l-78 6q-80 2 -102 51q-23 52 -21 209 v107q-2 110 14 170q17 57 82 162l129 223q74 135 136 223q59 86 135 100l57 11q12 10 12 26q-4 17 -16 25q-100 -6 -191 -6q-90 0 -196 6q-12 -6 -12 -23q0 -16 8 -28l37 -5q39 -2 63 -12q23 -10 23 -20q-2 -23 -43 -105q-43 -82 -90 -166q-95 -180 -193 -346 q-119 219 -231 455q-11 22 -35 80q-8 28 -19 49q-10 22 -10 29q-2 12 19 20q16 8 67 16l27 5q10 12 10 28q-2 19 -16 23q-78 -6 -219 -6q-144 0 -238 6q-10 -6 -10 -23zM326 1548q0 -49 30 -74q29 -26 72 -26q47 0 74 31q26 28 26 75q0 43 -26 72q-27 29 -74 31 q-47 -2 -76 -31q-28 -31 -26 -78zM729 1548q0 -49 31 -74q28 -26 73 -26q48 0 74 31q25 28 25 75q0 43 -25 72q-26 29 -74 31q-47 -2 -75 -31q-29 -31 -29 -78z" />
<glyph unicode="&#x2c6;" horiz-adv-x="737" d="M123 962q8 -22 33 -22l184 217q20 27 31 27q8 0 28 -27l185 -217q24 0 32 22l-208 371q-37 60 -76 0z" />
<glyph unicode="&#x2dc;" horiz-adv-x="737" d="M61 967q13 -21 35 -11q33 62 70 90q39 27 106 27h219q66 -2 105 37q24 27 47 72q23 41 33 79q-15 21 -37 9q-37 -54 -68 -72q-30 -20 -96 -20h-219q-37 0 -64 -7q-28 -8 -53 -34q-24 -29 -47 -82q-22 -56 -31 -88z" />
<glyph unicode="&#x2000;" horiz-adv-x="861" />
<glyph unicode="&#x2001;" horiz-adv-x="1722" />
<glyph unicode="&#x2002;" horiz-adv-x="861" />
<glyph unicode="&#x2003;" horiz-adv-x="1722" />
<glyph unicode="&#x2004;" horiz-adv-x="574" />
<glyph unicode="&#x2005;" horiz-adv-x="430" />
<glyph unicode="&#x2006;" horiz-adv-x="287" />
<glyph unicode="&#x2007;" horiz-adv-x="287" />
<glyph unicode="&#x2008;" horiz-adv-x="215" />
<glyph unicode="&#x2009;" horiz-adv-x="344" />
<glyph unicode="&#x200a;" horiz-adv-x="95" />
<glyph unicode="&#x2010;" horiz-adv-x="655" d="M66 410q-3 -35 30 -66l477 45q17 21 17 51q0 43 -31 66l-477 -45q-16 -19 -16 -51z" />
<glyph unicode="&#x2011;" horiz-adv-x="655" d="M66 410q-3 -35 30 -66l477 45q17 21 17 51q0 43 -31 66l-477 -45q-16 -19 -16 -51z" />
<glyph unicode="&#x2012;" horiz-adv-x="655" d="M66 410q-3 -35 30 -66l477 45q17 21 17 51q0 43 -31 66l-477 -45q-16 -19 -16 -51z" />
<glyph unicode="&#x2013;" d="M0 371h1024v100h-1024v-100z" />
<glyph unicode="&#x2014;" horiz-adv-x="2048" d="M0 371h2048v100h-2048v-100z" />
<glyph unicode="&#x2018;" horiz-adv-x="481" d="M113 1165q0 -82 49 -137q45 -59 108 -59q60 0 80 32q19 27 19 52q0 30 -17 45q-16 12 -39 12q-30 4 -63 31q-39 26 -39 84q0 63 51 108q47 43 105 68q8 12 4 24q-6 13 -19 19q-98 -29 -166 -101q-71 -69 -73 -178z" />
<glyph unicode="&#x2019;" horiz-adv-x="481" d="M113 979q4 -12 16 -21q100 31 170 103q68 71 70 176q-2 82 -47 139q-46 55 -111 57q-57 -2 -78 -28q-20 -29 -20 -55q0 -29 18 -41q16 -15 37 -17q35 0 68 -26q32 -31 34 -88q-2 -62 -47 -105q-47 -45 -108 -72q-6 -10 -2 -22z" />
<glyph unicode="&#x201a;" horiz-adv-x="440" d="M92 121q0 -29 19 -41q16 -14 36 -17q35 0 68 -26q33 -31 35 -88q-2 -62 -47 -105q-47 -45 -109 -71q-6 -11 -2 -23t17 -20q100 30 170 102q67 72 69 176q0 82 -45 139q-45 56 -113 58q-57 -2 -77 -29q-21 -29 -21 -55z" />
<glyph unicode="&#x201c;" horiz-adv-x="827" d="M113 1165q0 -82 49 -137q45 -59 108 -59q60 0 80 32q19 27 19 52q0 30 -17 45q-16 12 -39 12q-30 4 -63 31q-39 26 -39 84q0 63 51 108q47 43 105 68q8 12 4 24q-6 13 -19 19q-98 -29 -166 -101q-71 -69 -73 -178zM459 1165q0 -82 49 -137q45 -59 108 -59q60 0 80 32 q19 27 19 52q0 30 -17 45q-16 12 -39 12q-30 4 -63 31q-39 26 -39 84q0 63 51 108q47 43 105 68q8 12 4 24q-6 13 -19 19q-98 -29 -166 -101q-71 -69 -73 -178z" />
<glyph unicode="&#x201d;" horiz-adv-x="827" d="M113 979q4 -12 16 -21q100 31 170 103q68 71 70 176q-2 82 -47 139q-46 55 -111 57q-57 -2 -78 -28q-20 -29 -20 -55q0 -29 18 -41q16 -15 37 -17q35 0 68 -26q32 -31 34 -88q-2 -62 -47 -105q-47 -45 -108 -72q-6 -10 -2 -22zM459 979q4 -12 16 -21q100 31 170 103 q68 71 70 176q-2 82 -47 139q-45 55 -111 57q-57 -2 -78 -28q-20 -29 -20 -55q0 -29 18 -41q17 -15 37 -17q35 0 68 -26q32 -31 34 -88q-2 -62 -47 -105q-47 -45 -108 -72q-6 -10 -2 -22z" />
<glyph unicode="&#x201e;" horiz-adv-x="786" d="M92 121q0 -29 19 -41q16 -14 36 -17q35 0 68 -26q33 -31 35 -88q-2 -62 -47 -105q-47 -45 -109 -71q-6 -11 -2 -23t17 -20q100 30 170 102q67 72 69 176q0 82 -45 139q-45 56 -113 58q-57 -2 -77 -29q-21 -29 -21 -55zM438 121q0 -29 19 -41q16 -14 37 -17q34 0 67 -26 q33 -31 35 -88q-2 -62 -47 -105q-47 -45 -109 -71q-6 -11 -2 -23t17 -20q100 30 170 102q67 72 69 176q0 82 -45 139q-45 56 -112 58q-58 -2 -78 -29q-21 -29 -21 -55z" />
<glyph unicode="&#x2022;" horiz-adv-x="795" d="M113 688q2 -121 84 -201q79 -82 200 -82q123 0 203 82q80 80 82 201q-2 123 -82 203t-203 82q-121 -2 -200 -82q-82 -80 -84 -203z" />
<glyph unicode="&#x2026;" horiz-adv-x="2048" d="M227 84q0 -51 37 -80q33 -31 78 -33q53 2 84 33t31 80q0 51 -31 86t-84 35q-49 0 -82 -33q-33 -35 -33 -88zM909 84q0 -51 37 -80q33 -31 78 -33q53 2 84 33t31 80q0 51 -31 86t-84 35q-49 0 -82 -33q-33 -35 -33 -88zM1591 84q0 -51 37 -80q33 -31 78 -33q53 2 84 33 t31 80q0 51 -31 86t-84 35q-49 0 -82 -33q-33 -35 -33 -88z" />
<glyph unicode="&#x202f;" horiz-adv-x="344" />
<glyph unicode="&#x2039;" horiz-adv-x="477" d="M106 389q127 -153 244 -309q27 6 35 26l-143 291q-11 23 0 49l143 287q-10 25 -35 27q-117 -154 -244 -307q-28 -31 0 -64z" />
<glyph unicode="&#x203a;" horiz-adv-x="477" d="M92 106q8 -20 35 -26q117 156 244 309q28 33 0 64q-127 153 -244 307q-23 -2 -35 -27l144 -287q10 -26 0 -49z" />
<glyph unicode="&#x205f;" horiz-adv-x="430" />
<glyph unicode="&#x2122;" horiz-adv-x="2253" d="M82 1190q4 -8 20 -12q15 -5 25 2q22 69 68 96q45 20 124 20h76q33 0 41 -6q4 -8 4 -43v-514q0 -84 -12 -121q-16 -37 -66 -39l-61 -4q-8 -8 -8 -22q0 -17 10 -23q105 4 209 4q96 0 203 -4q10 6 12 23q0 14 -10 22l-53 4q-56 7 -70 41q-14 37 -12 119v514q-2 35 6 43 q8 6 39 6h92q94 0 125 -22q30 -25 39 -101q8 -6 24 -4q15 0 19 9q-2 43 4 104q6 57 16 94l-27 4q-14 -16 -36 -22q-27 -6 -74 -6h-530q-64 0 -87 8q-20 8 -30 33h-27q-16 -84 -53 -203zM967 549q0 -17 6 -25q92 4 157 4q80 0 146 -4q6 8 8 25q0 14 -6 20l-39 4q-45 4 -59 31 q-13 27 -15 96q0 140 6 269q4 45 7 112q4 64 6 76q10 -8 37 -55q26 -49 45 -90l120 -242q64 -119 115 -252q12 -6 27 2q20 55 71 156q52 98 68 129l117 219q22 41 49 86q24 45 28 47q5 -8 5 -43l8 -442q4 -54 -6 -74q-11 -21 -60 -25l-41 -4q-8 -6 -8 -20q0 -17 10 -25 q82 4 181 4q73 0 155 -4q10 8 10 25q0 14 -8 20l-43 4q-33 2 -45 23q-14 20 -16 72q-10 264 -10 528q0 55 20 82q16 24 68 29l36 4q11 8 11 24q-2 17 -13 21q-65 -4 -139 -4q-45 0 -110 4q-25 -82 -64 -166q-39 -82 -67 -131l-97 -180q-26 -54 -49 -93q-22 -41 -31 -47 q-8 11 -32 56l-39 65l-121 229q-27 52 -59 134q-15 38 -25 73q-12 35 -16 60q-86 -4 -134 -4q-69 0 -135 4q-6 -4 -6 -19q-4 -16 2 -26l31 -4q55 -5 76 -25q16 -23 16 -76q0 -121 -8 -252q-4 -98 -12 -180q-9 -82 -13 -106q-4 -54 -22 -72q-21 -19 -62 -23l-28 -4 q-6 -6 -4 -20z" />
<glyph unicode="&#xe000;" horiz-adv-x="895" d="M0 895h895v-895h-895v895z" />
<glyph unicode="&#xfb01;" horiz-adv-x="1426" d="M912 20q0 -18 12 -26q115 6 209 6t209 -6q12 8 16 26q0 17 -12 25l-39 6q-64 8 -80 37q-16 24 -16 108v19v459v20q0 85 16 111t80 33l39 6q12 12 12 28q-4 19 -16 23q-115 -6 -209 -6t-209 6q-12 -4 -12 -23q0 -16 8 -28l39 -6q65 -7 82 -33q14 -29 14 -131v-459 q0 -100 -14 -127q-17 -29 -82 -37l-39 -6q-8 -8 -8 -25zM72 20q0 -18 12 -26q115 6 209 6q88 0 233 -6q13 8 17 26q0 17 -13 25l-63 6q-64 2 -80 33q-16 28 -16 112v19v152q-2 30 6 41q6 6 33 6h110q80 0 105 -15q22 -18 30 -63l11 -39q10 -8 26 -8q17 0 25 12q-4 80 -4 147 q0 64 4 144q-8 12 -25 16q-16 0 -26 -12l-11 -39q-8 -45 -30 -61q-25 -17 -105 -17h-110q-27 0 -33 8q-8 7 -6 33v238v13q0 41 12 50q14 8 57 8h80q39 0 94 -4q54 -6 80 -45q19 -22 37 -98q12 -12 29 -10q16 0 24 14q-8 152 -10 209q-51 -6 -197 -6h-284q-49 0 -96 2 q-45 0 -88 4q-13 -4 -13 -23q0 -16 8 -28l25 -6q57 -9 74 -35q12 -27 12 -129v-459q0 -100 -14 -127q-17 -29 -82 -37l-39 -6q-8 -8 -8 -25z" />
<glyph unicode="&#xfb02;" horiz-adv-x="1704" d="M912 20q0 -18 12 -26q115 6 209 6h168q80 0 162 -2q86 0 180 -4q41 78 61 227q-4 17 -22 19q-17 2 -31 -11q-21 -61 -45 -94q-27 -33 -57 -51q-60 -25 -145 -25h-13q-78 0 -111 11q-35 10 -47 22q-12 17 -16 55q-6 39 -6 86v441v18q0 87 18 111q16 24 78 35l27 6 q12 12 12 28q-4 19 -17 23q-100 -6 -196 -6q-94 0 -209 6q-12 -4 -12 -23q0 -16 8 -28l39 -6q65 -7 82 -33q14 -29 14 -131v-459q0 -100 -14 -127q-17 -29 -82 -37l-39 -6q-8 -8 -8 -25zM72 20q0 -18 12 -26q115 6 209 6q88 0 233 -6q13 8 17 26q0 17 -13 25l-63 6 q-64 2 -80 33q-16 28 -16 112v19v152q-2 30 6 41q6 6 33 6h110q80 0 105 -15q22 -18 30 -63l11 -39q10 -8 26 -8q17 0 25 12q-4 80 -4 147q0 64 4 144q-8 12 -25 16q-16 0 -26 -12l-11 -39q-8 -45 -30 -61q-25 -17 -105 -17h-110q-27 0 -33 8q-8 7 -6 33v238v13q0 41 12 50 q14 8 57 8h80q39 0 94 -4q54 -6 80 -45q19 -22 37 -98q12 -12 29 -10q16 0 24 14q-8 152 -10 209q-51 -6 -197 -6h-284q-49 0 -96 2q-45 0 -88 4q-13 -4 -13 -23q0 -16 8 -28l25 -6q57 -9 74 -35q12 -27 12 -129v-459q0 -100 -14 -127q-17 -29 -82 -37l-39 -6q-8 -8 -8 -25z " />
<glyph unicode="&#xfb03;" horiz-adv-x="2266" d="M1752 20q0 -18 12 -26q115 6 209 6t209 -6q12 8 16 26q0 17 -12 25l-39 6q-64 8 -80 37q-16 24 -16 108v19v459v20q0 85 16 111t80 33l39 6q12 12 12 28q-4 19 -16 23q-115 -6 -209 -6t-209 6q-12 -4 -12 -23q0 -16 8 -28l39 -6q65 -7 82 -33q14 -29 14 -131v-459 q0 -100 -14 -127q-17 -29 -82 -37l-39 -6q-8 -8 -8 -25zM912 20q0 -18 12 -26q115 6 209 6q88 0 233 -6q13 8 17 26q0 17 -13 25l-63 6q-64 2 -80 33q-16 28 -16 112v19v152q-2 30 6 41q6 6 33 6h110q80 0 105 -15q22 -18 30 -63l11 -39q10 -8 26 -8q17 0 25 12 q-4 80 -4 147q0 64 4 144q-8 12 -25 16q-16 0 -26 -12l-11 -39q-8 -45 -30 -61q-25 -17 -105 -17h-110q-27 0 -33 8q-8 7 -6 33v238v13q0 41 12 50q14 8 57 8h80q39 0 94 -4q54 -6 80 -45q19 -22 37 -98q12 -12 29 -10q16 0 24 14q-8 152 -10 209q-51 -6 -197 -6h-284 q-49 0 -96 2q-45 0 -88 4q-13 -4 -13 -23q0 -16 8 -28l25 -6q57 -9 74 -35q12 -27 12 -129v-459q0 -100 -14 -127q-17 -29 -82 -37l-39 -6q-8 -8 -8 -25zM72 20q0 -18 12 -26q115 6 209 6q88 0 233 -6q13 8 17 26q0 17 -13 25l-63 6q-64 2 -80 33q-16 28 -16 112v19v152 q-2 30 6 41q6 6 33 6h110q80 0 105 -15q22 -18 30 -63l11 -39q10 -8 26 -8q17 0 25 12q-4 80 -4 147q0 64 4 144q-8 12 -25 16q-16 0 -26 -12l-11 -39q-8 -45 -30 -61q-25 -17 -105 -17h-110q-27 0 -33 8q-8 7 -6 33v238v13q0 41 12 50q14 8 57 8h80q39 0 94 -4 q54 -6 80 -45q19 -22 37 -98q12 -12 29 -10q16 0 24 14q-8 152 -10 209q-51 -6 -197 -6h-284q-49 0 -96 2q-45 0 -88 4q-13 -4 -13 -23q0 -16 8 -28l25 -6q57 -9 74 -35q12 -27 12 -129v-459q0 -100 -14 -127q-17 -29 -82 -37l-39 -6q-8 -8 -8 -25z" />
<glyph unicode="&#xfb04;" horiz-adv-x="2544" d="M1752 20q0 -18 12 -26q115 6 209 6h168q80 0 162 -2q86 0 180 -4q41 78 61 227q-4 17 -22 19q-17 2 -31 -11q-21 -61 -45 -94q-27 -33 -57 -51q-60 -25 -145 -25h-13q-78 0 -111 11q-35 10 -47 22q-12 17 -16 55q-6 39 -6 86v441v18q0 87 18 111q16 24 78 35l27 6 q12 12 12 28q-4 19 -17 23q-100 -6 -196 -6q-94 0 -209 6q-12 -4 -12 -23q0 -16 8 -28l39 -6q65 -7 82 -33q14 -29 14 -131v-459q0 -100 -14 -127q-17 -29 -82 -37l-39 -6q-8 -8 -8 -25zM912 20q0 -18 12 -26q115 6 209 6q88 0 233 -6q13 8 17 26q0 17 -13 25l-63 6 q-64 2 -80 33q-16 28 -16 112v19v152q-2 30 6 41q6 6 33 6h110q80 0 105 -15q22 -18 30 -63l11 -39q10 -8 26 -8q17 0 25 12q-4 80 -4 147q0 64 4 144q-8 12 -25 16q-16 0 -26 -12l-11 -39q-8 -45 -30 -61q-25 -17 -105 -17h-110q-27 0 -33 8q-8 7 -6 33v238v13q0 41 12 50 q14 8 57 8h80q39 0 94 -4q54 -6 80 -45q19 -22 37 -98q12 -12 29 -10q16 0 24 14q-8 152 -10 209q-51 -6 -197 -6h-284q-49 0 -96 2q-45 0 -88 4q-13 -4 -13 -23q0 -16 8 -28l25 -6q57 -9 74 -35q12 -27 12 -129v-459q0 -100 -14 -127q-17 -29 -82 -37l-39 -6q-8 -8 -8 -25z M72 20q0 -18 12 -26q115 6 209 6q88 0 233 -6q13 8 17 26q0 17 -13 25l-63 6q-64 2 -80 33q-16 28 -16 112v19v152q-2 30 6 41q6 6 33 6h110q80 0 105 -15q22 -18 30 -63l11 -39q10 -8 26 -8q17 0 25 12q-4 80 -4 147q0 64 4 144q-8 12 -25 16q-16 0 -26 -12l-11 -39 q-8 -45 -30 -61q-25 -17 -105 -17h-110q-27 0 -33 8q-8 7 -6 33v238v13q0 41 12 50q14 8 57 8h80q39 0 94 -4q54 -6 80 -45q19 -22 37 -98q12 -12 29 -10q16 0 24 14q-8 152 -10 209q-51 -6 -197 -6h-284q-49 0 -96 2q-45 0 -88 4q-13 -4 -13 -23q0 -16 8 -28l25 -6 q57 -9 74 -35q12 -27 12 -129v-459q0 -100 -14 -127q-17 -29 -82 -37l-39 -6q-8 -8 -8 -25z" />
</font>
</defs>
</svg>
